<svg width="40" height="71" viewBox="0 0 40 71" fill="none" xmlns="http://www.w3.org/2000/svg">
<g clip-path="url(#clip0)">
<path d="M5.92126 70.0472C2.64567 70.0472 0 67.4016 0 64.126V5.92126C0 2.64567 2.64567 0 5.92126 0H34.0158C37.2913 0 39.937 2.64567 39.937 5.92126V64.126C39.937 67.4016 37.2913 70.0472 34.0158 70.0472H5.92126Z" fill="white"/>
<path d="M15.748 6.99227C15.3701 6.99227 15.0551 6.67731 15.0551 6.29936C15.0551 5.92141 15.3701 5.60645 15.748 5.60645H24.189C24.5669 5.60645 24.8819 5.92141 24.8819 6.29936C24.8819 6.67731 24.5669 6.99227 24.189 6.99227H15.748Z" fill="#959595"/>
<path d="M34.0157 0.629921C36.9134 0.629921 39.3071 3.02362 39.3071 5.92126V64.126C39.3071 67.0236 36.9134 69.4173 34.0157 69.4173H5.92126C3.02362 69.4173 0.629921 67.0236 0.629921 64.126V5.92126C0.629921 3.02362 3.02362 0.629921 5.92126 0.629921H34.0157ZM34.0157 0H5.92126C2.64567 0 0 2.64567 0 5.92126V64.126C0 67.4016 2.64567 70.0472 5.92126 70.0472H34.0157C37.2913 70.0472 39.937 67.4016 39.937 64.126V5.92126C40 2.64567 37.2913 0 34.0157 0Z" fill="#959595"/>
<path d="M35.8425 10.6458C36.0945 10.6458 36.3465 10.8978 36.3465 11.1497V58.8977C36.3465 59.1497 36.0945 59.4017 35.8425 59.4017H4.15748C3.90551 59.4017 3.65354 59.1497 3.65354 58.8977V11.1497C3.65354 10.8978 3.90551 10.6458 4.15748 10.6458H35.8425ZM35.8425 10.0159H4.15748C3.52756 10.0159 3.02362 10.5198 3.02362 11.1497V58.8977C3.02362 59.5277 3.52756 60.0316 4.15748 60.0316H35.8425C36.4724 60.0316 36.9764 59.5277 36.9764 58.8977V11.1497C36.9764 10.5198 36.4724 10.0159 35.8425 10.0159Z" fill="#959595"/>
<path d="M19.9685 67.9686C18.6457 67.9686 17.5118 66.8977 17.5118 65.5119C17.5118 64.126 18.5827 63.0552 19.9685 63.0552C21.2913 63.0552 22.4252 64.126 22.4252 65.5119C22.4252 66.8977 21.3543 67.9686 19.9685 67.9686Z" stroke="#959595" stroke-miterlimit="10"/>
</g>
<defs>
<clipPath id="clip0">
<rect width="40" height="70.0472" fill="white"/>
</clipPath>
</defs>
</svg>
