<svg width="49" height="65" viewBox="0 0 49 65" fill="none" xmlns="http://www.w3.org/2000/svg">
<g clip-path="url(#clip0)">
<path d="M26.7409 45.2048H21.5316V64.7106H26.7409V45.2048Z" fill="white"/>
<path d="M27.0882 64.9999H21.3001V44.9153H27.0882V64.9999ZM21.821 64.4211H26.4515V45.4941H21.821V64.4211Z" fill="#959595"/>
<path d="M24.1941 47.9832C37.3324 47.9832 47.9831 37.3325 47.9831 24.1942C47.9831 11.056 37.3324 0.405273 24.1941 0.405273C11.0558 0.405273 0.405151 11.056 0.405151 24.1942C0.405151 37.3325 11.0558 47.9832 24.1941 47.9832Z" fill="white"/>
<path d="M24.1941 48.3304C10.8237 48.3304 0 37.5067 0 24.1941C0 10.8816 10.8237 0 24.1941 0C37.5646 0 48.3882 10.8237 48.3882 24.1941C48.3882 37.5646 37.5067 48.3304 24.1941 48.3304ZM24.1941 0.578807C11.171 0.578807 0.578807 11.171 0.578807 24.1941C0.578807 37.2173 11.171 47.8094 24.1941 47.8094C37.2173 47.8094 47.8094 37.2173 47.8094 24.1941C47.8094 11.171 37.1594 0.578807 24.1941 0.578807ZM24.1941 45.4363C12.4443 45.4363 2.89403 35.886 2.89403 24.1941C2.89403 12.5022 12.4443 2.89403 24.1941 2.89403C35.9439 2.89403 45.4942 12.4443 45.4942 24.1941C45.4942 35.9439 35.886 45.4363 24.1941 45.4363ZM24.1941 3.47284C12.7337 3.47284 3.47284 12.7337 3.47284 24.1941C3.47284 35.6545 12.7337 44.9154 24.1941 44.9154C35.6545 44.9154 44.9154 35.6545 44.9154 24.1941C44.9154 12.7337 35.5966 3.47284 24.1941 3.47284Z" fill="#959595"/>
<path d="M28.2458 35.365V22.0524C28.2458 19.7951 26.3936 17.9429 24.1362 17.9429C21.8789 17.9429 20.0267 19.7951 20.0267 22.0524V28.5929H21.3001L17.4221 35.3071L13.5441 28.5929H14.8174V22.0524C14.8174 16.9011 18.9849 12.7336 24.1362 12.7336C29.2876 12.7336 33.455 16.9011 33.455 22.0524V35.365H28.2458Z" fill="white"/>
<path d="M17.4221 35.886L13.0232 28.3036H14.5281V22.0525C14.5281 16.7854 18.8112 12.4443 24.1363 12.4443C29.4613 12.4443 33.7444 16.7275 33.7444 22.0525V35.6545H27.9564V22.0525C27.9564 19.9688 26.22 18.2324 24.1363 18.2324C22.0525 18.2324 20.3161 19.9109 20.3161 22.0525V28.3036H21.821L17.4221 35.886ZM28.5352 35.0757H33.1656V22.0525C33.1656 17.0748 29.114 13.0231 24.1363 13.0231C19.1585 13.0231 15.1069 17.0748 15.1069 22.0525V28.8824H14.065L17.4221 34.7284L20.8371 28.8824H19.7952V22.0525C19.7952 19.6215 21.7631 17.6536 24.1941 17.6536C26.6251 17.6536 28.5931 19.6215 28.5931 22.0525V35.0757H28.5352Z" fill="#959595"/>
</g>
<defs>
<clipPath id="clip0">
<rect width="48.3304" height="65" fill="white"/>
</clipPath>
</defs>
</svg>
