<svg width="61" height="50" viewBox="0 0 61 50" fill="none" xmlns="http://www.w3.org/2000/svg">
<g clip-path="url(#clip0)">
<path d="M11.8628 49.7219C11.3531 49.7219 10.9361 49.3976 10.797 48.8878L8.89713 41.937C8.80445 41.5199 8.48007 41.1955 8.06302 41.1028L1.11214 39.2029C0.741427 39.1103 0.417052 38.7859 0.324374 38.4152C0.231695 38.0445 0.324374 37.6274 0.602409 37.3494L25.1158 12.8359L37.164 24.8841L12.6506 49.3976C12.4189 49.5829 12.1872 49.7219 11.8628 49.7219Z" fill="white"/>
<path d="M25.1158 12.9286L31.0936 18.9063L37.0714 24.8841L24.1891 37.7664L12.6043 49.3512C12.4189 49.5365 12.1409 49.6756 11.8628 49.6756C11.3994 49.6756 10.9824 49.3512 10.8434 48.8878L8.94346 41.9369C8.80445 41.5199 8.48007 41.1491 8.06302 41.0565L1.11214 39.1566C0.741427 39.0639 0.463391 38.7858 0.370713 38.4151C0.278035 38.0444 0.370713 37.6737 0.648748 37.3957L12.2335 25.8109L25.1158 12.9286ZM25.1158 12.7896L12.1409 25.7645L0.55607 37.3493C-0.0926789 37.9981 0.231695 39.0639 1.0658 39.2956L8.01668 41.1955C8.43373 41.2882 8.71177 41.6125 8.85079 42.0296L10.7507 48.9805C10.8897 49.5365 11.3994 49.8146 11.8628 49.8146C12.1409 49.8146 12.4652 49.7219 12.6969 49.4902L24.2817 37.9054L37.2567 24.9304L31.1863 18.8136L25.1158 12.7896Z" fill="white"/>
<path d="M48.1464 49.7219C47.8684 49.7219 47.5904 49.6293 47.3587 49.3976L22.8916 24.8841L34.9398 12.8359L59.4532 37.3494C59.7312 37.6274 59.8239 38.0445 59.7312 38.4152C59.6386 38.7859 59.3605 39.1103 58.9435 39.2029L51.9926 41.1028C51.5755 41.1955 51.2512 41.5199 51.1585 41.937L49.2586 48.8878C49.1196 49.3976 48.6562 49.7219 48.1464 49.7219Z" fill="white"/>
<path d="M34.8934 12.9286L47.7757 25.8109L59.3605 37.3957C59.6386 37.6737 59.7312 38.0444 59.6386 38.4151C59.5459 38.7858 59.2678 39.0639 58.8971 39.1566L51.9462 41.0565C51.5292 41.1955 51.1585 41.5199 51.0658 41.9369L49.1659 48.8878C49.0269 49.3512 48.6562 49.6756 48.1464 49.6756C47.8684 49.6756 47.5904 49.5829 47.405 49.3512L35.8202 37.7664L22.9842 24.8841L28.962 18.9063L34.8934 12.9286ZM34.8934 12.7896L28.8693 18.8136L22.7989 24.8841L35.7739 37.8591L47.3587 49.4439C47.5904 49.6756 47.8684 49.7682 48.1928 49.7682C48.7025 49.7682 49.1659 49.4439 49.3049 48.9341L51.2048 41.9832C51.2975 41.5662 51.6219 41.2882 52.0389 41.1491L58.9898 39.2492C59.8703 39.0175 60.1483 37.9517 59.4995 37.303L47.9147 25.7182L34.8934 12.7896Z" fill="white"/>
<path d="M11.8628 49.9538C11.2604 49.9538 10.7507 49.5367 10.5653 48.9807L8.66543 42.0298C8.57275 41.7054 8.29472 41.4274 7.97034 41.3347L1.01946 39.4348C0.556071 39.2958 0.185357 38.9714 0.092679 38.508C5.47618e-07 38.0446 0.092679 37.5812 0.417053 37.2105L25.1158 12.5117L37.4884 24.8843L12.836 49.5367C12.5579 49.8148 12.2336 49.9538 11.8628 49.9538ZM25.1158 13.1605L0.787767 37.5349C0.556071 37.7666 0.463393 38.091 0.556071 38.369C0.648749 38.6934 0.880445 38.9251 1.15848 38.9714L8.10936 40.8713C8.61909 41.0103 8.98981 41.381 9.12882 41.8908L11.0287 48.8417C11.1214 49.2124 11.4921 49.4904 11.8628 49.4904C12.0945 49.4904 12.3262 49.3977 12.4652 49.2124L36.7933 24.8843L25.1158 13.1605Z" fill="#959595"/>
<path d="M11.8628 50.0001C11.2141 50.0001 10.7044 49.583 10.519 48.9806L8.61909 42.0297C8.52641 41.7054 8.29472 41.4737 7.97034 41.381L1.01946 39.4811C0.556072 39.3421 0.185358 38.9714 0.0463409 38.508C-0.0926767 38.0446 0.0463409 37.5348 0.417054 37.1641L25.1158 12.4653L37.5811 24.9306L12.836 49.583C12.6043 49.8611 12.2336 50.0001 11.8628 50.0001ZM25.1158 13.2531L0.834107 37.5812C0.64875 37.7665 0.556072 38.0909 0.602411 38.3689C0.69509 38.647 0.880446 38.8787 1.15848 38.925L8.10936 40.8249C8.61909 40.9639 9.03615 41.381 9.17516 41.8907L11.0751 48.8416C11.1677 49.2123 11.4921 49.444 11.8628 49.444C12.0945 49.444 12.2799 49.3513 12.4189 49.2123L36.747 24.8842L25.1158 13.2531Z" fill="#959595"/>
<path d="M48.1464 49.9538C47.7757 49.9538 47.4514 49.8148 47.2197 49.5831L22.5672 24.8843L34.8934 12.5117L59.5459 37.1642C59.8703 37.4885 60.0093 37.9983 59.8703 38.4617C59.7312 38.9251 59.4069 39.2958 58.9435 39.3885L51.9926 41.2884C51.6682 41.381 51.3902 41.6591 51.2975 41.9834L49.3976 48.9343C49.3049 49.5367 48.7952 49.9538 48.1464 49.9538ZM23.2159 24.8843L47.544 49.2124C47.7294 49.3977 47.9147 49.4904 48.1464 49.4904C48.5635 49.4904 48.8879 49.2124 48.9805 48.8417L50.8805 41.8908C51.0195 41.381 51.3902 41.0103 51.8999 40.8713L58.8508 38.9714C59.1752 38.8787 59.3605 38.647 59.4532 38.369C59.5459 38.0446 59.4532 37.7666 59.2215 37.5349L34.8934 13.1605L23.2159 24.8843Z" fill="#959595"/>
<path d="M48.1464 50C47.7757 50 47.4514 49.861 47.1733 49.583L22.4745 24.8842L34.9398 12.4189L59.6386 37.1177C60.0093 37.4885 60.1483 37.9518 60.0093 38.4616C59.8703 38.9713 59.4995 39.2957 59.0362 39.4347L52.0853 41.3346C51.7609 41.4273 51.5292 41.659 51.4365 41.9834L49.5366 48.9342C49.3513 49.583 48.7952 50 48.1464 50ZM23.3086 24.8842L47.6367 49.2123C47.7757 49.3513 48.0074 49.444 48.1928 49.444C48.5635 49.444 48.8879 49.2123 48.9805 48.8416L50.8805 41.8907C51.0195 41.3809 51.4365 40.9639 51.9463 40.8249L58.8971 38.925C59.1752 38.8323 59.4069 38.6469 59.4532 38.3689C59.5459 38.0909 59.4532 37.8128 59.2215 37.5811L34.8934 13.2531L23.3086 24.8842Z" fill="#959595"/>
<path d="M30.0278 36.8859C29.6571 36.8859 29.1937 36.7005 29.101 36.0981C28.823 34.6616 27.5718 33.6885 26.1353 33.6885C25.1622 33.6885 24.2817 34.1519 23.7257 34.9397C23.5403 35.2177 23.2623 35.3567 22.9379 35.3567C22.6135 35.3567 22.3355 35.2177 22.1501 34.986C21.9648 34.7543 21.9184 34.4763 21.9648 34.1982C22.1501 33.2714 21.9648 32.391 21.4087 31.6959C20.8526 30.9545 19.9259 30.5374 19.0454 30.5374C18.4893 30.5374 17.9796 30.6765 17.5162 30.9545C17.3772 31.0472 17.1918 31.0935 17.0065 31.0935C16.6358 31.0935 16.3114 30.8618 16.126 30.5374C15.9407 30.2131 15.987 29.8423 16.2187 29.5643C16.9138 28.6375 17.0065 27.479 16.4968 26.4132C15.987 25.3938 14.9676 24.745 13.8091 24.745C13.6701 24.745 13.5774 24.745 13.4384 24.745C13.392 24.745 13.3457 24.745 13.2994 24.745C12.7433 24.745 12.4652 24.3743 12.3726 24.0036C12.2799 23.6792 12.3726 23.1695 12.836 22.9378C13.9018 22.3354 14.4578 21.2233 14.3652 20.0184C14.2261 18.8136 13.4384 17.8405 12.2799 17.4698C11.7238 17.2844 11.5848 16.821 11.6311 16.4503C11.6775 16.0796 11.9092 15.6625 12.5116 15.5699C13.7164 15.4309 14.6895 14.6431 15.1066 13.4846C15.4773 12.3261 15.1529 11.1213 14.2261 10.2872C13.9018 10.0092 13.8091 9.63845 13.9481 9.2214C14.0871 8.85069 14.4578 8.57265 14.8285 8.57265C14.9212 8.57265 15.0602 8.57265 15.1529 8.61899C15.4773 8.71167 15.8017 8.75801 16.126 8.75801C17.1455 8.75801 18.0723 8.24828 18.6284 7.36783C19.1844 6.48739 19.2771 5.46792 18.8137 4.4948C18.6747 4.17043 18.6747 3.84605 18.8601 3.56802C19.0454 3.28998 19.3698 3.10462 19.6942 3.10462C19.9259 3.10462 20.1576 3.1973 20.3429 3.38266C20.899 3.89239 21.5941 4.17043 22.3355 4.17043C23.1233 4.17043 23.9574 3.84605 24.5134 3.24364C25.0695 2.68757 25.3939 1.89981 25.3475 1.11204C25.3475 0.834004 25.4402 0.602308 25.6256 0.416951C25.8109 0.231594 26.089 0.138916 26.3207 0.138916C26.6914 0.138916 27.0158 0.370612 27.2011 0.741326C27.6645 1.85347 28.7303 2.54855 29.9815 2.54855C31.1863 2.54855 32.2521 1.85347 32.7618 0.741326C32.9008 0.370612 33.2252 0.138916 33.6423 0.138916C33.9203 0.138916 34.152 0.231594 34.3373 0.416951C34.5227 0.602308 34.6154 0.834004 34.6154 1.11204C34.6154 1.94615 34.8934 2.68757 35.4495 3.24364C36.0056 3.79971 36.7933 4.17043 37.6274 4.17043C38.3689 4.17043 39.0639 3.89239 39.62 3.38266C39.8517 3.33632 40.0834 3.24364 40.3151 3.24364C40.6395 3.24364 40.9639 3.429 41.1492 3.70703C41.3346 3.98507 41.3346 4.30944 41.1956 4.63382C40.7785 5.60694 40.8248 6.6264 41.3809 7.50685C41.937 8.38729 42.8638 8.89703 43.8832 8.89703C44.2076 8.89703 44.532 8.85069 44.8563 8.75801C44.949 8.71167 45.088 8.71167 45.1807 8.71167C45.5514 8.71167 45.9221 8.94337 46.0612 9.36042C46.2002 9.73113 46.1075 10.1482 45.7831 10.4262C44.8563 11.214 44.532 12.4651 44.9027 13.6236C45.2734 14.7821 46.2465 15.5699 47.4977 15.7089C48.0537 15.7552 48.3318 16.2186 48.3781 16.5893C48.4245 16.96 48.2854 17.4234 47.7294 17.6088C46.5709 17.9795 45.7831 18.9526 45.6441 20.1575C45.5051 21.3623 46.1075 22.4744 47.1733 23.0768C47.6367 23.3549 47.7294 23.8182 47.6367 24.1426C47.544 24.467 47.266 24.8841 46.7099 24.8841C46.6636 24.8841 46.6172 24.8841 46.5709 24.8841C46.4319 24.8841 46.3392 24.8841 46.2002 24.8841C45.088 24.8841 44.0686 25.5328 43.5125 26.5523C43.0028 27.5717 43.0955 28.7765 43.7905 29.7033C44.0222 30.0277 44.0686 30.3521 43.8832 30.6764C43.6979 31.0008 43.3735 31.2325 43.0028 31.2325C42.8174 31.2325 42.6784 31.1862 42.493 31.0935C42.0297 30.8155 41.5199 30.6764 40.9639 30.6764C40.0834 30.6764 39.1566 31.0935 38.6006 31.8349C38.0445 32.53 37.8128 33.4568 38.0445 34.3372C38.0908 34.6153 38.0445 34.9397 37.8591 35.125C37.6738 35.3567 37.3957 35.4957 37.0714 35.4957C36.747 35.4957 36.469 35.3567 36.2836 35.0787C35.7275 34.2909 34.8007 33.8275 33.874 33.8275C32.4374 33.8275 31.1863 34.8006 30.9082 36.2372C30.8619 36.7005 30.3985 36.8859 30.0278 36.8859Z" fill="white"/>
<path d="M30.0278 37.164C29.5181 37.164 28.962 36.8397 28.7766 36.1446C28.4523 34.6617 27.1548 33.9666 26.089 33.9666C25.2085 33.9666 24.4208 34.3837 23.911 35.1251C23.6793 35.4495 23.3086 35.6348 22.8916 35.6348C22.5209 35.6348 22.1038 35.4495 21.8721 35.1715C21.6404 34.8934 21.5477 34.5227 21.6404 34.1057C21.8258 33.2715 21.6404 32.4838 21.1307 31.835C20.6209 31.1863 19.7868 30.8156 18.9991 30.8156C18.5357 30.8156 18.0723 30.9546 17.6089 31.1863C16.9601 31.557 16.1724 31.279 15.848 30.6765C15.6163 30.2595 15.6627 29.7498 15.987 29.3791C16.5894 28.5449 16.6821 27.4791 16.2187 26.5524C15.709 25.5329 14.6432 24.9305 13.4847 25.0695C13.4384 25.0695 13.392 25.0695 13.3457 25.0695C12.7896 25.0695 12.2799 24.6988 12.1409 24.1427C12.0019 23.5867 12.2335 23.0306 12.7433 22.7525C13.7164 22.1965 14.2261 21.177 14.0871 20.1112C13.9944 18.9991 13.253 18.1186 12.1872 17.7943C11.4921 17.5626 11.2604 16.9601 11.3068 16.4504C11.3531 15.9407 11.7238 15.3846 12.4189 15.3383C13.531 15.2456 14.4115 14.5042 14.7359 13.4847C15.0602 12.4189 14.7822 11.3531 13.9481 10.6117C13.531 10.241 13.392 9.73123 13.6237 9.2215C13.8554 8.57275 14.5505 8.24838 15.1993 8.48007C16.4041 8.89713 17.7016 8.3874 18.3503 7.36793C18.8601 6.58017 18.9064 5.65338 18.5357 4.77294C18.3503 4.35589 18.3967 3.93883 18.6284 3.56812C19.0454 2.91937 19.9722 2.78035 20.5283 3.29008C21.038 3.75348 21.6867 4.03151 22.3355 4.03151C23.0769 4.03151 23.772 3.75348 24.2817 3.1974C24.6525 2.82669 25.0695 2.22428 25.0695 1.25116C25.0695 0.880445 25.2085 0.60241 25.4402 0.370714C25.6719 0.139018 25.9963 0 26.367 0C26.8767 0 27.2938 0.278035 27.5255 0.741427C27.9425 1.76089 28.9157 2.3633 30.0278 2.3633C31.1399 2.3633 32.0667 1.71455 32.5301 0.741427C32.7155 0.278035 33.1789 0 33.6886 0C34.013 0 34.3837 0.139018 34.6154 0.370714C34.8471 0.60241 34.9861 0.926784 34.9861 1.25116C34.9861 2.17794 35.4032 2.82669 35.7739 3.1974C36.2836 3.70714 37.025 4.03151 37.7201 4.03151C38.4152 4.03151 39.0176 3.79981 39.5273 3.29008C40.0834 2.78035 41.0565 2.91937 41.4273 3.56812C41.659 3.93883 41.7053 4.35589 41.5199 4.77294C41.1492 5.65338 41.1956 6.58017 41.7053 7.36793C42.4004 8.43373 43.6515 8.89713 44.8564 8.48007C45.5051 8.24838 46.2002 8.61909 46.4319 9.2215C46.6172 9.73123 46.4782 10.241 46.1075 10.6117C45.2734 11.3531 44.9954 12.4652 45.3197 13.4847C45.6441 14.5505 46.5709 15.2456 47.6367 15.3383C48.3318 15.3846 48.7025 15.9407 48.7488 16.4504C48.7952 16.9601 48.5635 17.5626 47.8684 17.7943C46.8026 18.1186 46.1075 18.9991 45.9685 20.1112C45.8758 21.2234 46.3855 22.2428 47.3123 22.7525C47.8221 23.0306 48.0538 23.5867 47.9147 24.1427C47.7757 24.7451 47.2197 25.1622 46.5709 25.0695C46.4782 25.0695 46.3392 25.0695 46.2465 25.0695C45.2271 25.0695 44.3003 25.6256 43.8369 26.5524C43.3735 27.4791 43.4662 28.5449 44.0686 29.3791C44.3466 29.7498 44.393 30.2595 44.2076 30.6765C43.8832 31.3253 43.0955 31.557 42.4467 31.1863C42.0297 30.9082 41.5663 30.8156 41.0565 30.8156C40.2224 30.8156 39.4347 31.1863 38.9249 31.835C38.4152 32.4838 38.2298 33.2715 38.4152 34.1057C38.5079 34.4764 38.4152 34.8471 38.1835 35.1715C37.9518 35.4958 37.5811 35.6348 37.164 35.6348C36.747 35.6348 36.4226 35.4495 36.1446 35.1251C35.6348 34.3837 34.8471 33.9666 33.9666 33.9666C32.9008 33.9666 31.6033 34.6617 31.279 36.1446C31.0936 36.886 30.5375 37.164 30.0278 37.164ZM26.089 33.4106C27.6645 33.4106 29.0083 34.4764 29.3327 36.0519C29.4254 36.5616 29.8888 36.608 29.9815 36.608C30.0741 36.608 30.5375 36.5616 30.6302 36.0519C30.9546 34.4764 32.2984 33.4106 33.874 33.4106C34.9398 33.4106 35.9129 33.9203 36.5616 34.8007C36.7007 34.9861 36.886 35.0788 37.0714 35.0788C37.3031 35.0788 37.4884 34.9861 37.6274 34.8007C37.7665 34.6617 37.8128 34.43 37.7665 34.2447C37.5348 33.2252 37.7665 32.2521 38.4152 31.4643C39.064 30.6766 39.9907 30.2132 41.0102 30.2132C41.6126 30.2132 42.1687 30.3522 42.6784 30.6765C43.0491 30.9082 43.4662 30.7229 43.6515 30.3985C43.7442 30.1668 43.7442 29.9351 43.6052 29.7034C42.8638 28.684 42.7248 27.3865 43.3272 26.2743C43.9296 25.0232 45.2734 24.3281 46.6636 24.4671C47.2197 24.5598 47.3587 24.05 47.405 23.9574C47.4514 23.8183 47.4977 23.4476 47.0806 23.2159C45.9222 22.5672 45.2734 21.316 45.4124 20.0185C45.5514 18.6747 46.4319 17.6089 47.683 17.2382C48.1928 17.0992 48.1464 16.6358 48.1464 16.5431C48.1464 16.4504 48.0538 15.987 47.544 15.9407C46.2002 15.8017 45.1344 14.9676 44.7173 13.6701C44.3003 12.4189 44.671 11.0751 45.6905 10.1946C45.9222 10.0093 45.9685 9.73123 45.8758 9.4532C45.7368 9.08248 45.3661 8.94347 45.0417 9.03614C43.6052 9.49954 42.0297 8.94347 41.1956 7.69231C40.5931 6.71918 40.5005 5.60704 40.9639 4.54124C41.0565 4.30955 41.0565 4.07785 40.9175 3.89249C40.6858 3.52178 40.1761 3.4291 39.8517 3.70714C39.2493 4.26321 38.4615 4.58758 37.6274 4.58758C36.747 4.58758 35.8665 4.21687 35.2641 3.61446C34.6617 3.01205 34.3374 2.17794 34.3374 1.2975C34.3374 1.11214 34.291 0.926784 34.152 0.834106C34.013 0.695088 33.8276 0.648749 33.6423 0.648749C33.3642 0.648749 33.1325 0.787766 33.0399 1.0658C32.5301 2.27062 31.3716 3.05839 30.0278 3.05839C28.684 3.05839 27.5255 2.31696 27.0158 1.0658C26.9231 0.787766 26.6914 0.648749 26.4133 0.648749C26.228 0.648749 26.0426 0.741427 25.9036 0.834106C25.7646 0.973123 25.7183 1.11214 25.7183 1.2975C25.7183 2.17794 25.3939 3.01205 24.7915 3.61446C24.1427 4.26321 23.3086 4.58758 22.4282 4.58758C21.5941 4.58758 20.8526 4.26321 20.2039 3.70714C19.8795 3.4291 19.3698 3.52178 19.1844 3.84615C18.9991 4.07785 18.9991 4.26321 19.0918 4.4949C19.5551 5.51437 19.5088 6.67284 18.8601 7.64597C18.026 8.89713 16.4968 9.49954 15.0139 8.98981C14.6432 8.85079 14.3188 9.03614 14.1798 9.40686C14.0871 9.68489 14.1335 9.96293 14.3652 10.1483C15.3846 11.0287 15.709 12.3726 15.3383 13.6237C14.9212 14.8749 13.8554 15.7553 12.5116 15.8943C12.0019 15.9407 11.9092 16.4041 11.9092 16.4968C11.9092 16.5894 11.8628 17.0528 12.3726 17.1918C13.6237 17.6089 14.5042 18.6747 14.6432 19.9722C14.7822 21.316 14.1335 22.5209 12.975 23.1696C12.5579 23.4013 12.6043 23.8183 12.6506 23.911C12.6506 24.0037 12.7896 24.4208 13.2994 24.4208C13.3457 24.4208 13.3457 24.4208 13.392 24.4208C14.7822 24.2817 16.0797 24.9768 16.7285 26.228C17.2845 27.3401 17.1918 28.6376 16.4504 29.6571C16.3114 29.8888 16.2651 30.1205 16.4041 30.3522C16.5894 30.7229 17.0065 30.8619 17.3772 30.6302C17.8869 30.3058 18.443 30.1668 19.0454 30.1668C20.0185 30.1668 20.9917 30.6302 21.6404 31.418C22.2892 32.2057 22.4745 33.1789 22.2892 34.1983C22.2428 34.3837 22.2892 34.6154 22.4282 34.7544C22.5672 34.9398 22.7525 35.0324 22.9842 35.0324C23.2159 35.0324 23.4013 34.9398 23.494 34.7544C24.05 33.9203 25.0232 33.4106 26.089 33.4106Z" fill="#959595"/>
<path d="M30.0278 29.7961C23.8647 29.7961 18.8601 24.7915 18.8601 18.6284C18.8601 12.4653 23.8647 7.41431 30.0278 7.41431C36.1909 7.41431 41.1956 12.4189 41.1956 18.5821C41.1956 24.7452 36.1909 29.7961 30.0278 29.7961ZM30.0278 7.8777C24.0964 7.8777 19.2771 12.697 19.2771 18.5821C19.2771 24.5135 24.0964 29.2864 29.9815 29.2864C35.9129 29.2864 40.6858 24.4671 40.6858 18.5821C40.7322 12.697 35.9129 7.8777 30.0278 7.8777Z" fill="#959595"/>
<path d="M30.0278 22.4282C27.8962 22.4282 26.1816 20.7136 26.1816 18.582C26.1816 16.4504 27.8962 14.7358 30.0278 14.7358C32.1594 14.7358 33.874 16.4504 33.874 18.582C33.874 20.7136 32.1594 22.4282 30.0278 22.4282ZM30.0278 15.1992C28.1742 15.1992 26.645 16.7284 26.645 18.582C26.645 20.4356 28.1742 21.9648 30.0278 21.9648C31.8814 21.9648 33.4106 20.4356 33.4106 18.582C33.4106 16.7284 31.8814 15.1992 30.0278 15.1992Z" fill="#959595"/>
</g>
<defs>
<clipPath id="clip0">
<rect width="60.0556" height="50" fill="white"/>
</clipPath>
</defs>
</svg>
