<svg width="65" height="50" viewBox="0 0 65 50" fill="none" xmlns="http://www.w3.org/2000/svg">
<g clip-path="url(#clip0)">
<path d="M49.5365 26.4775H24.8552C23.0591 26.4775 21.6686 25.0291 21.6686 23.291V3.47635C21.6686 1.68029 23.117 0.289795 24.8552 0.289795H61.0081C62.8042 0.289795 64.1947 1.73823 64.1947 3.47635V23.1751C64.1947 24.9711 62.7463 26.3616 61.0081 26.3616H59.27V36.0951L49.5365 26.4775Z" fill="white"/>
<path d="M59.5597 36.9061L49.4206 26.7671H24.8552C22.9432 26.7671 21.3789 25.2028 21.3789 23.2908V3.47625C21.3789 1.56431 22.9432 0 24.8552 0H61.0081C62.92 0 64.4844 1.56431 64.4844 3.47625V23.175C64.4844 25.0869 62.92 26.6512 61.0081 26.6512H59.5597V36.9061ZM24.8552 0.579374C23.2329 0.579374 21.9583 1.91193 21.9583 3.47625V23.175C21.9583 24.7972 23.2908 26.0718 24.8552 26.0718H49.6524L58.9803 35.3998V26.1298H61.0081C62.6304 26.1298 63.905 24.7972 63.905 23.2329V3.47625C63.905 1.854 62.5724 0.579374 61.0081 0.579374H24.8552Z" fill="#959595"/>
<path d="M5.21435 39.5132H3.47623C1.68017 39.5132 0.289673 38.0648 0.289673 36.3267V16.628C0.289673 14.8319 1.73811 13.4414 3.47623 13.4414H39.6292C41.4253 13.4414 42.8737 14.8898 42.8737 16.628V36.3267C42.8737 38.1227 41.4253 39.5132 39.6292 39.5132H15.0058L5.21435 49.3047V39.5132Z" fill="white"/>
<path d="M4.92468 50.0001V39.8031H3.47625C1.56431 39.8031 0 38.2388 0 36.3268V16.6281C0 14.7162 1.56431 13.1519 3.47625 13.1519H39.6292C41.5411 13.1519 43.1634 14.7162 43.1634 16.6281V36.3268C43.1634 38.2388 41.5991 39.8031 39.6292 39.8031H15.1217L4.92468 50.0001ZM3.47625 13.6733C1.854 13.6733 0.579374 15.0059 0.579374 16.5702V36.2689C0.579374 37.8911 1.91193 39.1658 3.47625 39.1658H5.50406V48.4937L14.8899 39.1658H39.6292C41.2514 39.1658 42.584 37.8332 42.584 36.2689V16.5702C42.584 14.9479 41.2514 13.6733 39.6292 13.6733H3.47625Z" fill="#959595"/>
</g>
<defs>
<clipPath id="clip0">
<rect width="64.5423" height="50" fill="white"/>
</clipPath>
</defs>
</svg>
