<svg width="42" height="55" viewBox="0 0 42 55" fill="none" xmlns="http://www.w3.org/2000/svg">
<path d="M24.9479 50.8018C24.9479 53.0972 23.0753 54.9698 20.7799 54.9698C18.4844 54.9698 16.6118 53.0972 16.6118 50.8018H24.9479Z" fill="white"/>
<path d="M24.9479 50.8018C24.9479 53.0972 23.0753 54.9698 20.7799 54.9698C18.4844 54.9698 16.6118 53.0972 16.6118 50.8018H24.9479Z" fill="#FFF08C"/>
<path d="M21.5953 0.60405H19.9341V25.5519H21.5953V0.60405Z" fill="white"/>
<path d="M24.9479 28.3004V35.7908H16.6118V28.3004C16.6118 27.8473 16.7024 27.3943 16.8836 27.0016C17.0649 26.609 17.3065 26.2466 17.6085 25.9445L17.6387 25.9143C17.6689 25.8841 17.7293 25.8237 17.7595 25.7935C17.8199 25.7331 17.8804 25.7029 17.9408 25.6425C18.0314 25.5821 18.122 25.5217 18.2126 25.4613C18.3032 25.4009 18.3938 25.3405 18.4844 25.3103C18.5448 25.2801 18.575 25.2801 18.6354 25.2499C19.0281 25.0686 19.4811 24.978 19.9342 24.978H21.5953C22.8337 24.978 23.8908 25.6425 24.4646 26.6392C24.7667 27.1225 24.9479 27.6963 24.9479 28.3004Z" fill="white"/>
<path d="M41.5596 51.4058H0L16.6117 35.1867H24.9478L41.5596 51.4058Z" fill="white"/>
<path d="M41.5596 51.4058H0L16.6117 35.1867H24.9478L41.5596 51.4058Z" fill="#FFF08C"/>
<path d="M24.2834 51.4058C24.0116 53.0972 22.5316 54.3959 20.7799 54.3959C19.0281 54.3959 17.5783 53.0972 17.2763 51.4058H24.2834ZM24.9479 50.8018H16.6118C16.6118 53.1274 18.4844 55 20.7799 55C23.0753 55 24.9479 53.0972 24.9479 50.8018Z" fill="#959595"/>
<path d="M21.9275 25.5519H19.6321V0H21.8973V25.5519H21.9275ZM20.2361 24.9478H21.2933V0.604064H20.2361V24.9478Z" fill="#959595"/>
<path d="M21.6255 25.5519C22.592 25.5519 23.4981 26.0653 23.9814 26.911C24.223 27.3339 24.3438 27.7869 24.3438 28.2702V35.1867H17.2159V28.2702C17.2159 27.9077 17.2763 27.5453 17.4273 27.2131C17.5783 26.8808 17.7595 26.5788 18.0012 26.3372L18.0314 26.307C18.0616 26.2768 18.0918 26.2466 18.122 26.2163C18.1522 26.1861 18.1824 26.1559 18.2126 26.1257L18.273 26.0653C18.3334 26.0049 18.3938 25.9747 18.4844 25.9143C18.575 25.8539 18.6354 25.8237 18.726 25.7935C18.7562 25.7633 18.8166 25.7633 18.8469 25.7331C19.1791 25.5821 19.5415 25.5217 19.904 25.5217H21.6255V25.5519ZM21.6255 24.9478H19.9342C19.4811 24.9478 19.0281 25.0384 18.6354 25.2196C18.575 25.2498 18.5448 25.2498 18.4844 25.28C18.3938 25.3405 18.3032 25.3707 18.2126 25.4311C18.122 25.4915 18.0314 25.5519 17.9408 25.6123C17.8803 25.6727 17.8199 25.7029 17.7595 25.7633C17.7293 25.7935 17.6689 25.8539 17.6387 25.8841L17.6085 25.9143C17.3065 26.2163 17.0649 26.5788 16.8836 26.9714C16.7024 27.3641 16.6118 27.8171 16.6118 28.2702V35.7908H24.9177V28.2702C24.9177 27.6661 24.7667 27.0922 24.4646 26.609C23.921 25.6123 22.8337 24.9478 21.6255 24.9478Z" fill="#959595"/>
<path d="M24.676 35.7908L40.0494 50.8017H1.47996L16.8534 35.7908H24.676ZM24.9478 35.1867H16.6117L0 51.4058H41.5596L24.9478 35.1867Z" fill="#959595"/>
</svg>
