<svg width="30" height="50" viewBox="0 0 30 50" fill="none" xmlns="http://www.w3.org/2000/svg">
<path d="M12.6648 19.4556L13.0086 20.2006L13.3811 20.9169H14.5846H15.8167L16.1891 20.2006L16.533 19.4556V18.7393V17.9943H14.5846H12.6648V18.7393V19.4556Z" fill="white"/>
<path d="M8.76782 31.6332C8.76782 36.2464 11.3753 46.6476 14.6131 46.6476C17.8509 46.6476 20.4584 36.2464 20.4584 31.6332C20.4584 27.02 17.8509 23.2951 14.6131 23.2951C11.3753 23.2951 8.76782 27.02 8.76782 31.6332Z" fill="white"/>
<path d="M20.4584 48.0516H8.76782V50H20.4584V48.0516Z" fill="white"/>
<path d="M17.5357 21.3467H11.6904V23.2951H17.5357V21.3467Z" fill="white"/>
<path d="M17.5357 46.6476H11.6904V48.596H17.5357V46.6476Z" fill="white"/>
<path d="M29.1977 16.2178V19.4556H0V16.2178L3.63897 8.10888L7.30659 0H21.8911L25.5587 8.10888L29.1977 16.2178Z" fill="white"/>
<path d="M13.5529 21.6333L12.9512 20.3439V19.1691H16.2463V20.3439L15.6446 21.6333H13.5529Z" fill="white"/>
<path d="M15.9598 19.4556V19.6275V20.2579L15.6732 20.9169L15.4727 21.3467H14.6131H13.7535L13.5242 20.9169L13.2091 20.2865V19.6562V19.4843H14.5844H15.9598V19.4556ZM16.5328 18.8825H14.5844H12.636V19.6275V20.3725L13.0085 21.1175L13.381 21.8625H14.5844H15.7878L16.1603 21.1175L16.5328 20.3725V19.6275V18.8825Z" fill="#959595"/>
<path d="M14.5846 46.361C13.3239 46.361 11.9199 44.3267 10.7164 40.7736C9.71356 37.765 9.02588 34.0115 9.02588 31.6332C9.02588 27.192 11.5187 23.5817 14.5846 23.5817C17.6505 23.5817 20.1434 27.192 20.1434 31.6332C20.1434 34.0115 19.4557 37.765 18.4528 40.7736C17.278 44.3267 15.874 46.361 14.5846 46.361Z" fill="white"/>
<path d="M14.5845 23.8682C17.4785 23.8682 19.8567 27.3639 19.8567 31.6332C19.8567 36.6476 17.0774 46.0745 14.5845 46.0745C12.0917 46.0745 9.31232 36.6476 9.31232 31.6332C9.34098 27.3352 11.6905 23.8682 14.5845 23.8682ZM14.5845 23.2951C11.3467 23.2951 8.73926 27.02 8.73926 31.6332C8.73926 36.2464 11.3467 46.6476 14.5845 46.6476C17.8224 46.6476 20.4298 36.2464 20.4298 31.6332C20.4298 27.02 17.8224 23.2951 14.5845 23.2951Z" fill="#959595"/>
<path d="M20.1719 48.3381H9.05444V49.7135H20.1719V48.3381Z" fill="white"/>
<path d="M19.8566 48.6246V49.4269H9.34089V48.6246H19.8566ZM20.4297 48.0516H8.76782V50H20.4584V48.0516H20.4297Z" fill="#959595"/>
<path d="M17.2493 21.6332H11.9771V23.0086H17.2493V21.6332Z" fill="white"/>
<path d="M16.934 21.9198V22.7221H12.2635V21.9198H16.934ZM17.507 21.3467H11.6904V23.2951H17.5357V21.3467H17.507Z" fill="#959595"/>
<path d="M17.2493 46.9341H11.9771V48.3668H17.2493V46.9341Z" fill="white"/>
<path d="M16.934 47.2206V48.0802H12.2635V47.2206H16.934ZM17.507 46.6476H11.6904V48.6533H17.5357V46.6476H17.507Z" fill="#959595"/>
<path d="M0.286621 19.1691V16.2751L7.4786 0.28653H21.7193L28.9113 16.2751V19.1691H0.286621Z" fill="white"/>
<path d="M0.286621 19.1691V16.2751L7.4786 0.28653H21.7193L28.9113 16.2751V19.1691H0.286621Z" fill="#FFF08C"/>
<path d="M21.5186 0.573066L25.0143 8.33811L28.6246 16.3324V18.8825H0.573066V16.3324L4.18338 8.33811L7.67908 0.573066H21.5186ZM21.8911 0H7.30659L3.63897 8.10888L0 16.2178V19.4556H29.1977V16.2178L25.5587 8.10888L21.8911 0Z" fill="#959595"/>
</svg>
