<svg width="42" height="50" viewBox="0 0 42 50" fill="none" xmlns="http://www.w3.org/2000/svg">
<path d="M22.5526 37.8078C25.1351 38.5586 26.997 40.961 26.997 43.7838C26.997 47.2072 24.2042 50 20.7808 50C17.3574 50 14.5646 47.2072 14.5646 43.7838C14.5646 40.961 16.4264 38.5886 19.009 37.8078H22.5526Z" fill="white"/>
<path d="M22.4324 38.4084C24.7448 39.1291 26.3664 41.3213 26.3664 43.7838C26.3664 46.8769 23.8439 49.3994 20.7508 49.3994C17.6577 49.3994 15.1351 46.8769 15.1351 43.7838C15.1351 41.3514 16.7568 39.1592 19.0691 38.4084H22.4324ZM22.5225 37.8078H18.979C16.3964 38.5586 14.5345 40.961 14.5345 43.7838C14.5345 47.2072 17.3273 50 20.7508 50C24.2042 50 26.967 47.2072 26.967 43.7838C26.997 40.961 25.1051 38.5886 22.5225 37.8078Z" fill="#959595"/>
<path d="M20.7507 45.5255C19.7598 45.5255 18.979 44.7147 18.979 43.7537C18.979 42.7628 19.7898 41.982 20.7507 41.982C21.7417 41.982 22.5225 42.7928 22.5225 43.7537C22.5225 44.7447 21.7417 45.5255 20.7507 45.5255Z" fill="white"/>
<path d="M20.7507 38.2583C9.45945 38.2583 0.300293 29.0691 0.300293 17.8078H2.07206C2.07206 28.1081 10.4504 36.4865 20.7507 36.4865C31.051 36.4865 39.4294 28.1081 39.4294 17.8078H41.2012C41.2312 29.0691 32.042 38.2583 20.7507 38.2583Z" fill="white"/>
<path d="M20.7508 37.958C9.72975 37.958 0.750767 29.0691 0.600616 18.1081H1.77179C1.92194 28.4385 10.3904 36.7868 20.7508 36.7868C31.1111 36.7868 39.5796 28.4385 39.7298 18.1081H40.9009C40.7508 29.0691 31.7718 37.958 20.7508 37.958Z" fill="white"/>
<path d="M40.6006 18.4084C40.2703 29.0991 31.5015 37.6877 20.7507 37.6877C9.99999 37.6877 1.23122 29.0691 0.900894 18.4084H1.47146C1.80179 28.7688 10.3303 37.0871 20.7507 37.0871C31.1712 37.0871 39.6997 28.7688 40.03 18.4084H40.6006ZM41.2312 17.8078H39.4594C39.4594 28.1081 31.0811 36.4865 20.7808 36.4865C10.4805 36.4865 2.07206 28.1081 2.07206 17.8078H0.300293C0.300293 29.0991 9.48948 38.2883 20.7808 38.2883C32.0721 38.2883 41.2312 29.0691 41.2312 17.8078Z" fill="#959595"/>
<path d="M38.5624 44.5462L38.5624 42.7744L20.8447 42.7744L20.8447 44.5462L38.5624 44.5462Z" fill="white"/>
<path d="M38.2583 43.0931H21.1412V44.2643H38.2583V43.0931Z" fill="white"/>
<path d="M37.958 43.3934V43.964H21.4415V43.3934H37.958ZM38.5586 42.7928H20.8409V44.5646H38.5586V42.7928Z" fill="#959595"/>
<path d="M36.7641 41.6011L36.7641 39.8293L22.5299 39.8293L22.5299 41.6011L36.7641 41.6011Z" fill="white"/>
<path d="M37.0871 40.1201H21.1111V41.2913H37.0871V40.1201Z" fill="white"/>
<path d="M36.7567 40.4204V40.991H21.4114V40.4204H36.7567ZM37.3573 39.8198H20.8108V41.5916H37.3874V39.8198H37.3573Z" fill="#959595"/>
<path d="M40.3456 42.5212L40.3456 38.9477L36.7721 38.9477L36.7721 42.5212L40.3456 42.5212Z" fill="white"/>
<path d="M40.06 39.2192H37.0871V42.1922H40.06V39.2192Z" fill="white"/>
<path d="M39.7297 39.5195V41.8919H37.3574V39.5195H39.7297ZM40.3303 38.9189H36.7568V42.4925H40.3303V38.9189Z" fill="#959595"/>
<path d="M40.3314 45.48L40.3314 41.9064L36.7578 41.9064L36.7578 45.48L40.3314 45.48Z" fill="white"/>
<path d="M40.06 42.1922H37.0871V45.1652H40.06V42.1922Z" fill="white"/>
<path d="M39.7297 42.4925V44.8648H37.3574V42.4925H39.7297ZM40.3303 41.8919H36.7568V45.4654H40.3303V41.8919Z" fill="#959595"/>
<path d="M22.5225 39.5495H18.979V37.7778C18.979 36.7868 19.7898 36.006 20.7507 36.006C21.7417 36.006 22.5225 36.8168 22.5225 37.7778V39.5495Z" fill="white"/>
<path d="M19.2793 39.2492V37.7778C19.2793 36.967 19.94 36.3063 20.7508 36.3063C21.5616 36.3063 22.2222 36.967 22.2222 37.7778V39.2492H19.2793Z" fill="white"/>
<path d="M20.7507 36.5766C21.4114 36.5766 21.9219 37.1171 21.9219 37.7478V38.9189H19.5495V37.7478C19.5796 37.1171 20.1201 36.5766 20.7507 36.5766ZM20.7507 35.976C19.7598 35.976 18.979 36.7868 18.979 37.7478V39.5195H22.5225V37.7478C22.5225 36.7868 21.7417 35.976 20.7507 35.976Z" fill="#959595"/>
<path d="M20.7507 45.4654C19.7598 45.4654 18.979 44.6546 18.979 43.6937C18.979 42.7027 19.7898 41.9219 20.7507 41.9219C21.7417 41.9219 22.5225 42.7327 22.5225 43.6937C22.5225 44.6546 21.7417 45.4654 20.7507 45.4654Z" fill="white"/>
<path d="M20.7508 45.1351C21.5634 45.1351 22.2222 44.4763 22.2222 43.6637C22.2222 42.851 21.5634 42.1922 20.7508 42.1922C19.9381 42.1922 19.2793 42.851 19.2793 43.6637C19.2793 44.4763 19.9381 45.1351 20.7508 45.1351Z" fill="white"/>
<path d="M20.7507 42.4925C21.4114 42.4925 21.9219 43.033 21.9219 43.6636C21.9219 44.2943 21.3814 44.8348 20.7507 44.8348C20.0901 44.8348 19.5796 44.2943 19.5796 43.6636C19.5796 43.033 20.1201 42.4925 20.7507 42.4925ZM20.7507 41.8919C19.7598 41.8919 18.979 42.7027 18.979 43.6636C18.979 44.6546 19.7898 45.4354 20.7507 45.4354C21.7417 45.4354 22.5225 44.6246 22.5225 43.6636C22.5225 42.7027 21.7417 41.8919 20.7507 41.8919Z" fill="#959595"/>
<path d="M20.7507 35.6156C30.5857 35.6156 38.5585 27.6428 38.5585 17.8078C38.5585 7.97283 30.5857 0 20.7507 0C10.9158 0 2.94293 7.97283 2.94293 17.8078C2.94293 27.6428 10.9158 35.6156 20.7507 35.6156Z" fill="white"/>
<path d="M20.7508 30.2703C27.6336 30.2703 33.2132 24.6907 33.2132 17.8078C33.2132 10.925 27.6336 5.34537 20.7508 5.34537C13.8679 5.34537 8.2883 10.925 8.2883 17.8078C8.2883 24.6907 13.8679 30.2703 20.7508 30.2703Z" fill="white"/>
<path d="M3.57357 19.5796H1.77177C0.780781 19.5796 0 18.7688 0 17.8078C0 16.8168 0.810811 16.036 1.77177 16.036H3.54354V19.5796H3.57357Z" fill="white"/>
<path d="M39.7297 19.5796H37.9579V16.006H39.7297C40.7207 16.006 41.5015 16.8168 41.5015 17.7778C41.5015 18.7688 40.7207 19.5796 39.7297 19.5796Z" fill="white"/>
<path d="M20.7508 35.3153C30.4199 35.3153 38.2583 27.4769 38.2583 17.8078C38.2583 8.13869 30.4199 0.300308 20.7508 0.300308C11.0817 0.300308 3.24329 8.13869 3.24329 17.8078C3.24329 27.4769 11.0817 35.3153 20.7508 35.3153Z" fill="white"/>
<path d="M20.7508 0.600601C30.2403 0.600601 37.958 8.31832 37.958 17.8078C37.958 27.2973 30.2403 35.015 20.7508 35.015C11.2613 35.015 3.57359 27.2673 3.57359 17.8078C3.57359 8.34835 11.2613 0.600601 20.7508 0.600601ZM20.7508 0C10.9309 0 2.97299 7.95796 2.97299 17.8078C2.97299 27.6577 10.9309 35.6156 20.7808 35.6156C30.6006 35.6156 38.5886 27.6577 38.5886 17.8078C38.5886 7.95796 30.5706 0 20.7508 0Z" fill="#959595"/>
<path d="M20.7508 29.97C27.4677 29.97 32.9129 24.5248 32.9129 17.8078C32.9129 11.0908 27.4677 5.64566 20.7508 5.64566C14.0338 5.64566 8.58859 11.0908 8.58859 17.8078C8.58859 24.5248 14.0338 29.97 20.7508 29.97Z" fill="white"/>
<path d="M20.7508 5.94597C27.2973 5.94597 32.6126 11.2613 32.6126 17.8078C32.6126 24.3544 27.2973 29.6397 20.7508 29.6397C14.2042 29.6397 8.8889 24.3243 8.8889 17.7778C8.8889 11.2313 14.2042 5.94597 20.7508 5.94597ZM20.7508 5.34537C13.8739 5.34537 8.2883 10.931 8.2883 17.8078C8.2883 24.6847 13.8739 30.2703 20.7508 30.2703C27.6276 30.2703 33.2132 24.6847 33.2132 17.8078C33.2132 10.931 27.6276 5.34537 20.7508 5.34537Z" fill="#959595"/>
<path d="M1.77176 19.2793C0.960954 19.2793 0.300293 18.6186 0.300293 17.8078C0.300293 16.997 0.960954 16.3363 1.77176 16.3363H3.24324V19.3093H1.77176V19.2793Z" fill="white"/>
<path d="M2.97297 16.6066V18.979H1.77177C1.11111 18.979 0.600601 18.4384 0.600601 17.8078C0.600601 17.1471 1.14114 16.6366 1.77177 16.6366H2.97297V16.6066ZM3.57357 16.006H1.77177C0.810811 16.006 0 16.8168 0 17.8078C0 18.7988 0.810811 19.5796 1.77177 19.5796H3.54354V16.006H3.57357Z" fill="#959595"/>
<path d="M38.2582 19.2793V16.3063H39.7297C40.5405 16.3063 41.2012 16.967 41.2012 17.7778C41.2012 18.5886 40.5405 19.2492 39.7297 19.2492H38.2582V19.2793Z" fill="white"/>
<path d="M39.7297 16.6066C40.3904 16.6066 40.9009 17.1471 40.9009 17.7778C40.9009 18.4084 40.3603 18.9489 39.7297 18.9489H38.5585V16.5766H39.7297V16.6066ZM39.7297 16.006H37.9579V19.5796H39.7297C40.7207 19.5796 41.5015 18.7688 41.5015 17.8078C41.5015 16.8168 40.7207 16.006 39.7297 16.006Z" fill="#959595"/>
<path d="M22.549 42.51L22.549 38.9364L18.9754 38.9364L18.9754 42.51L22.549 42.51Z" fill="white"/>
<path d="M22.2523 39.2192H19.2793V42.1922H22.2523V39.2192Z" fill="white"/>
<path d="M21.9219 39.5195V41.8919H19.5495V39.5195H21.9219ZM22.5225 38.9189H18.979V42.4925H22.5225V38.9189Z" fill="#959595"/>
</svg>
