<svg width="60" height="35" viewBox="0 0 60 35" fill="none" xmlns="http://www.w3.org/2000/svg">
<path d="M20.0714 16.7364V20.0714H0V16.7364L2.50892 8.35288L5.01785 0H15.0535L17.5625 8.35288L20.0714 16.7364Z" fill="white"/>
<path d="M20.0714 16.7364V20.0714H0V16.7364L2.50892 8.35288L5.01785 0H15.0535L17.5625 8.35288L20.0714 16.7364Z" fill="#FFF08C"/>
<path d="M28.4549 23.7736V24.4161C28.4549 29.9541 23.9572 34.4518 18.4192 34.4518C12.8813 34.4518 8.38354 29.9541 8.38354 24.4161H11.382C11.382 24.5079 11.382 24.6303 11.382 24.7221C11.535 28.4549 14.6253 31.4533 18.3886 31.4533C22.2132 31.4533 25.3035 28.4243 25.4259 24.6303C25.4259 24.5691 25.4259 24.5079 25.4259 24.4161V22.3967L28.4549 23.7736Z" fill="white"/>
<path d="M54.9515 21.9684H44.9158V24.9668H54.9515V21.9684Z" fill="white"/>
<path d="M39.8979 16.7364V20.0714H59.9999V16.7364L57.4604 8.35288L54.9515 0H44.9158L42.4069 8.35288L39.8979 16.7364Z" fill="white"/>
<path d="M39.8979 16.7364V20.0714H59.9999V16.7364L57.4604 8.35288L54.9515 0H44.9158L42.4069 8.35288L39.8979 16.7364Z" fill="#FFF08C"/>
<path d="M34.5131 22.3967V24.4161C34.5131 28.3019 37.6646 31.4533 41.5503 31.4533C45.4361 31.4533 48.557 28.3019 48.5876 24.4467H51.586C51.586 29.9847 47.0883 34.4824 41.5503 34.4824C36.0124 34.4824 31.5146 29.9847 31.5146 24.4467V23.8042L34.5131 22.3967Z" fill="white"/>
<path d="M11.382 19.49H8.38354V22.4885H11.382V19.49Z" fill="#C7C7C7"/>
<path d="M51.5859 19.49H48.5874V22.4885H51.5859V19.49Z" fill="#C7C7C7"/>
<path d="M54.3395 22.5803V24.3549H45.5277V22.5803H54.3395ZM54.9515 21.9684H44.9158V24.9668H54.9515V21.9684Z" fill="#959595"/>
<path d="M14.5946 0.611933L16.9811 8.53646L19.4595 16.8281V19.4595H0.611933V16.8281L3.09026 8.53646L5.4768 0.611933H14.5946ZM15.0535 0H5.01785L2.50892 8.35288L0 16.7364V20.0714H20.0714V16.7364L17.5625 8.38348L15.0535 0Z" fill="#959595"/>
<path d="M54.5231 0.611933L56.9097 8.53646L59.388 16.8281V19.4595H40.5405V16.8281L43.0188 8.53646L45.3747 0.611933H54.5231ZM54.9515 0H44.9158L42.4069 8.35288L39.8979 16.7058V20.0408H59.9693V16.7364L57.4604 8.38348L54.9515 0Z" fill="#959595"/>
<path d="M11.076 19.7654H8.68945V22.2743H11.076V19.7654Z" fill="white"/>
<path d="M10.8006 20.0714V21.9684H9.026V20.0714H10.8006ZM11.4125 19.4594H8.41406V22.5803H11.4125V19.4594Z" fill="#959595"/>
<path d="M51.2798 19.7654H48.8933V22.2437H51.2798V19.7654Z" fill="white"/>
<path d="M50.9739 20.0714V21.9378H49.1993V20.0714H50.9739ZM51.5859 19.4594H48.5874V22.5497H51.5859V19.4594Z" fill="#959595"/>
<path d="M33.9012 23.3758V24.4467C33.9012 28.6691 37.328 32.0959 41.5503 32.0959C45.5585 32.0959 48.8629 28.975 49.1689 25.0281H50.9741C50.6681 29.9541 46.5682 33.9011 41.5809 33.9011C36.3795 33.9011 32.1572 29.6787 32.1572 24.4773V24.1713L33.9012 23.3758ZM34.5131 22.3967L31.5146 23.7736V24.4161C31.5146 29.9541 36.0124 34.4518 41.5503 34.4518C47.0883 34.4518 51.586 29.9235 51.586 24.3549H48.5876C48.5876 28.2407 45.4361 31.4228 41.5503 31.4228C37.6646 31.4228 34.5131 28.2713 34.5131 24.3855V22.3967Z" fill="#959595"/>
<path d="M26.0683 23.3758L27.8429 24.1713V24.4161C27.8429 29.6176 23.6206 33.8399 18.4192 33.8399C13.4319 33.8399 9.33196 29.9235 9.026 24.9975H10.8006C11.1066 28.975 14.3804 32.0653 18.4192 32.0653C20.4079 32.0653 22.3049 31.3004 23.743 29.8929C25.181 28.4855 26.0071 26.6191 26.0377 24.6303C26.0377 24.5691 26.0377 24.4773 26.0377 24.4161V23.3758H26.0683ZM25.4564 22.3967V24.4161C25.4564 24.4773 25.4564 24.5385 25.4564 24.6303C25.334 28.4243 22.2437 31.4533 18.4192 31.4533C14.6558 31.4533 11.5655 28.4855 11.4125 24.7221C11.4125 24.6303 11.4125 24.4773 11.4125 24.3855H8.41406C8.41406 29.9235 12.9118 34.4518 18.4498 34.4518C23.9877 34.4518 28.4549 29.9847 28.4549 24.4161V23.7736L25.4564 22.3967Z" fill="#959595"/>
<path d="M31.5146 10.2499V5.56857H34.5131V11.6267L31.5146 10.2499Z" fill="white"/>
<path d="M25.4563 11.6267V5.56857H28.4854V10.2499L25.4563 11.6267Z" fill="white"/>
<path d="M33.9012 6.18051V10.6476L32.1266 9.8521V6.18051H33.9012ZM34.5131 5.56857H31.5146V10.2499L34.5131 11.6267V5.56857Z" fill="#959595"/>
<path d="M27.8736 6.18051V9.8521L26.099 10.6476V6.18051H27.8736ZM28.4855 5.56857H25.4871V11.6267L28.4855 10.2499V5.56857Z" fill="#959595"/>
<path d="M29.9848 9.48495C25.8236 9.48495 22.458 12.8506 22.458 17.0117C22.458 21.1729 25.8236 24.5385 29.9848 24.5385C34.1459 24.5385 37.5116 21.1729 37.5116 17.0117C37.5116 12.8506 34.1459 9.48495 29.9848 9.48495ZM29.9848 18.9087C28.9445 18.9087 28.0878 18.052 28.0878 17.0423C28.0878 16.002 28.9445 15.1453 29.9848 15.1453C31.0251 15.1453 31.8512 16.002 31.8512 17.0423C31.8818 18.052 31.0251 18.9087 29.9848 18.9087Z" fill="white"/>
<path d="M29.9848 10.0969C33.8094 10.0969 36.8996 13.1871 36.8996 17.0117C36.8996 20.8363 33.8094 23.9266 29.9848 23.9266C26.1602 23.9266 23.0699 20.8363 23.0699 17.0117C23.0699 13.1871 26.1908 10.0969 29.9848 10.0969ZM29.9848 19.5207C31.3616 19.5207 32.4631 18.3886 32.4631 17.0423C32.4631 15.6655 31.331 14.5334 29.9848 14.5334C28.6079 14.5334 27.4759 15.6655 27.4759 17.0423C27.5065 18.3886 28.6079 19.5207 29.9848 19.5207ZM29.9848 9.48495C25.8236 9.48495 22.458 12.8506 22.458 17.0117C22.458 21.1729 25.8236 24.5385 29.9848 24.5385C34.1459 24.5385 37.5116 21.1729 37.5116 17.0117C37.5116 12.8506 34.1459 9.48495 29.9848 9.48495ZM29.9848 18.9087C28.9445 18.9087 28.0878 18.052 28.0878 17.0423C28.0878 16.002 28.9445 15.1453 29.9848 15.1453C31.0251 15.1453 31.8512 16.002 31.8512 17.0423C31.8818 18.052 31.0251 18.9087 29.9848 18.9087Z" fill="#959595"/>
<path d="M15.0535 21.9684H5.01782V24.9668H15.0535V21.9684Z" fill="white"/>
<path d="M14.4416 22.5803V24.3549H5.62975V22.5803H14.4416ZM15.0535 21.9684H5.01782V24.9668H15.0535V21.9684Z" fill="#959595"/>
</svg>
