<svg width="50" height="44" viewBox="0 0 50 44" fill="none" xmlns="http://www.w3.org/2000/svg">
<path d="M39.9875 18.6214V24.922V31.8154V38.7399V42.6076H9.98128V38.7399V31.8154V24.922V18.6214H39.9875ZM40.6114 17.9975H9.35745V24.922V31.8154V38.7399V43.2315H40.6114V38.7399V31.8154V24.922V17.9975Z" fill="#959595"/>
<path d="M18.4965 22.5827C18.8396 22.5827 19.1516 22.645 19.4635 22.7698C19.7754 22.8946 20.0249 23.0817 20.2433 23.3001C20.4616 23.5184 20.6487 23.7991 20.7735 24.111C20.8983 24.423 20.9607 24.7661 20.9607 25.1092V30.2558V35.4024V40.549V42.5764H15.97V40.549V35.4024V30.287V25.1404C15.97 24.7973 16.0324 24.4542 16.1572 24.1422C16.2819 23.8303 16.4691 23.5808 16.6874 23.3313C16.9058 23.1129 17.1865 22.9258 17.4672 22.801C17.8415 22.645 18.1534 22.5827 18.4965 22.5827ZM18.4965 21.9588C18.0599 21.9588 17.6544 22.0524 17.2801 22.2084C16.9058 22.3643 16.5627 22.6139 16.2819 22.8946C16.0012 23.1753 15.7829 23.5184 15.6269 23.8927C15.471 24.267 15.3774 24.7037 15.3774 25.1404V30.287V35.4336V40.5802V43.2314H21.6157V40.5802V35.4336V30.287V25.1404C21.6157 24.7037 21.5221 24.2982 21.3662 23.8927C21.2102 23.5184 20.9919 23.1753 20.7111 22.8946C20.4304 22.6139 20.0873 22.3643 19.713 22.2084C19.3387 22.0524 18.9332 21.9588 18.4965 21.9588Z" fill="#959595"/>
<path d="M31.1291 22.5827C31.4722 22.5827 31.7842 22.645 32.0961 22.7698C32.408 22.8946 32.6575 23.0817 32.8759 23.3001C33.0942 23.5184 33.2813 23.7991 33.4061 24.111C33.5309 24.423 33.5933 24.7661 33.5933 25.1092V30.2558V35.4024V40.549V42.5764H28.6026V40.549V35.4024V30.287V25.1404C28.6026 24.7973 28.665 24.4542 28.7898 24.1422C28.9145 23.8303 29.1017 23.5808 29.32 23.3313C29.5384 23.1129 29.8191 22.9258 30.0998 22.801C30.4429 22.645 30.786 22.5827 31.1291 22.5827ZM31.1291 21.9588C30.6924 21.9588 30.287 22.0524 29.9127 22.2084C29.5384 22.3643 29.1953 22.6139 28.9145 22.8946C28.6338 23.1753 28.4155 23.5184 28.2595 23.8927C28.1036 24.267 28.01 24.7037 28.01 25.1404V30.287V35.4336V40.5802V43.2314H34.2483V40.5802V35.4336V30.287V25.1404C34.2483 24.7037 34.1547 24.2982 33.9987 23.8927C33.8428 23.5184 33.6245 23.1753 33.3437 22.8946C33.063 22.6139 32.7199 22.3643 32.3456 22.2084C31.9713 22.0524 31.5658 21.9588 31.1291 21.9588Z" fill="#959595"/>
<path d="M43.1066 14.8784V17.9975H6.86211V14.8784H43.1066ZM43.7305 14.2545H6.23828V18.6213H43.7305V14.2545Z" fill="#959595"/>
<path d="M36.8996 6.11356C37.0867 8.10982 38.116 9.95012 39.7692 11.1042V11.1354L39.9875 11.2602V11.728V14.2234H9.98128V11.728V11.2602C11.7592 10.1061 12.8821 8.23458 13.0692 6.11356H36.8996ZM41.0168 10.7611H40.393H41.0168ZM37.4922 5.48973H12.5078C12.5078 7.70433 11.3537 9.66939 9.57579 10.7611L9.35745 10.9171V11.7592V14.8784H40.6113V11.7592V10.9171L40.393 10.7923C38.6463 9.66939 37.4922 7.70433 37.4922 5.48973Z" fill="#959595"/>
<path d="M12.3518 6.23832H12.1959C12.1959 4.55397 10.8234 3.18155 9.13909 3.18155C8.57764 3.18155 8.07858 3.30631 7.6107 3.58704C6.67496 4.11729 6.08232 5.14661 6.08232 6.23832H5.92636C5.92636 5.08423 6.55019 4.02372 7.51713 3.46227C7.985 3.18155 8.54645 3.02559 9.1079 3.02559C10.917 3.05678 12.3518 4.49159 12.3518 6.23832Z" fill="#959595"/>
<path d="M12.6638 6.55023H11.884V6.23831C11.884 4.74112 10.6675 3.49346 9.13911 3.49346C8.64005 3.49346 8.17218 3.61822 7.76669 3.86775C6.92451 4.36682 6.39426 5.27137 6.39426 6.23831V6.55023H5.61447V6.23831C5.61447 4.99065 6.30068 3.83656 7.3612 3.18154C7.89145 2.86963 8.48409 2.71367 9.10792 2.71367C11.0418 2.71367 12.6326 4.30444 12.6326 6.23831V6.55023H12.6638Z" fill="#959595"/>
<path d="M44.0424 5.64566H43.8865C43.8865 3.96132 42.514 2.5889 40.8297 2.5889C40.2683 2.5889 39.7692 2.71366 39.3013 2.99439C38.3656 3.52464 37.7729 4.55396 37.7729 5.64566H37.617C37.617 4.49158 38.2408 3.43107 39.2077 2.86962C39.6756 2.5889 40.2371 2.43294 40.7985 2.43294C42.6076 2.43294 44.0424 3.86775 44.0424 5.64566Z" fill="#959595"/>
<path d="M44.3544 5.95757H43.5746V5.64566C43.5746 4.14847 42.3581 2.90081 40.8297 2.90081C40.3307 2.90081 39.894 3.02557 39.4573 3.2751C38.6151 3.77417 38.0849 4.67872 38.0849 5.64566V5.95757H37.3051V5.64566C37.3051 4.398 37.9913 3.24391 39.0518 2.58889C39.5821 2.27698 40.1747 2.12102 40.7985 2.12102C42.7324 2.12102 44.3232 3.71178 44.3232 5.64566V5.95757H44.3544Z" fill="#959595"/>
<path d="M43.7305 0.62383C46.8185 0.62383 49.345 3.15034 49.345 6.2383C49.345 9.32626 46.8185 11.8528 43.7305 11.8528C42.7324 11.8528 41.7654 11.6032 40.9233 11.1042C39.1765 10.106 38.116 8.23456 38.116 6.2383V5.61447H37.4922H12.5078V6.2383H11.884C11.884 8.23456 10.7923 10.106 9.04554 11.1042C8.20337 11.6032 7.26762 11.8528 6.2383 11.8528C3.15034 11.8528 0.62383 9.32626 0.62383 6.2383C0.62383 3.15034 3.15034 0.62383 6.2383 0.62383H43.7305ZM43.7305 0H6.2383C2.80724 0 0 2.80724 0 6.2383C0 9.70056 2.80724 12.4766 6.2383 12.4766C7.39239 12.4766 8.4529 12.1647 9.35745 11.6344C11.2289 10.5427 12.4766 8.54647 12.4766 6.2383H37.461H12.5078H37.5234C37.5234 8.54647 38.7711 10.5739 40.6425 11.6344C41.5471 12.1647 42.6388 12.4766 43.7617 12.4766C47.224 12.4766 50 9.66937 50 6.2383C50 2.80724 47.1928 0 43.7305 0Z" fill="#959595"/>
</svg>
