<svg width="299" height="300" viewBox="0 0 299 300" fill="none" xmlns="http://www.w3.org/2000/svg">
<path d="M150.429 0H147.953V116.535H150.429V0Z" fill="black"/>
<path d="M173.862 172.13L174.335 175.493H174.217C195.68 185.051 210.698 206.527 210.698 231.425C210.698 265.173 183.145 292.667 149.325 292.667C115.505 292.667 87.9524 265.232 87.9524 231.425C87.9524 206.527 102.97 184.992 124.433 175.493H124.315L124.788 172.13C101.433 181.747 84.9961 204.698 84.9961 231.484C84.9961 266.943 113.79 295.676 149.325 295.676C184.86 295.676 213.654 266.943 213.654 231.484C213.654 204.698 197.217 181.747 173.862 172.13Z" fill="#1A1A1A"/>
<path d="M169.866 139.082H128.143L130.309 123.947H167.7L169.866 139.082Z" fill="#1A1A1A"/>
<path d="M171.848 151.374H126.596L127.524 145.197H170.981L171.848 151.374Z" fill="#1A1A1A"/>
<path d="M174.943 172.624C167.02 169.35 158.353 167.559 149.253 167.559C140.153 167.559 131.486 169.35 123.562 172.624L125.729 157.552H172.777L174.943 172.624Z" fill="#1A1A1A"/>
<path d="M143.928 116.535H154.576L156.743 123.947H141.762L143.928 116.535Z" fill="#1A1A1A"/>
<path d="M142.318 167.744L119.785 229.517H116.689L139.223 167.744H142.318Z" fill="#1A1A1A"/>
<path d="M159.281 167.744L181.814 229.517H178.719L156.186 167.744H159.281Z" fill="#1A1A1A"/>
<path d="M63.3286 251.632H55.5905V175.095H53.6095H52.8048L0 252.311V252.806V254.72H52.4952V299.506H55.5905V254.72H63.3286V251.632ZM4.20952 251.632L52.4952 180.964V251.632H4.20952Z" fill="#1A1A1A"/>
<path d="M298.505 251.632H290.767V175.095H288.786H287.981L235.238 252.311V252.806V254.72H287.734V299.506H290.829V254.72H298.567V251.632H298.505ZM239.386 251.632L287.672 180.964V251.632H239.386Z" fill="#1A1A1A"/>
</svg>
