<svg width="483" height="361" viewBox="0 0 483 361" fill="none" xmlns="http://www.w3.org/2000/svg">
<path d="M243 0H239V64H243V0Z" fill="#1A1A1A"/>
<path d="M280.854 154L281.618 159.444H281.427C316.097 174.917 340.357 209.683 340.357 249.989C340.357 304.621 295.849 349.129 241.217 349.129C186.584 349.129 142.076 304.716 142.076 249.989C142.076 209.683 166.336 174.821 201.007 159.444H200.816L201.58 154C163.853 169.568 137.301 206.722 137.301 250.084C137.301 307.486 183.815 354 241.217 354C298.619 354 345.133 307.486 345.133 250.084C345.133 206.722 318.581 169.568 280.854 154Z" fill="#1A1A1A"/>
<path d="M274.4 100.5H207L210.5 76H270.9L274.4 100.5Z" fill="#1A1A1A"/>
<path d="M277.6 120.4H204.5L206 110.4H276.2L277.6 120.4Z" fill="#1A1A1A"/>
<path d="M282.6 154.8C269.8 149.5 255.8 146.6 241.1 146.6C226.4 146.6 212.4 149.5 199.6 154.8L203.1 130.4H279.1L282.6 154.8Z" fill="#1A1A1A"/>
<path d="M232.5 64H249.7L253.2 76H229L232.5 64Z" fill="#1A1A1A"/>
<path d="M229.9 146.9L193.5 246.9H188.5L224.9 146.9H229.9Z" fill="#1A1A1A"/>
<path d="M257.301 146.9L293.701 246.9H288.701L252.301 146.9H257.301Z" fill="#1A1A1A"/>
<path d="M102.3 282.7H89.8V158.8H86.6H85.3L0 283.8V284.6V287.7H84.8V360.2H89.8V287.7H102.3V282.7ZM6.8 282.7L84.8 168.3V282.7H6.8Z" fill="#1A1A1A"/>
<path d="M482.2 282.7H469.7V158.8H466.5H465.2L380 283.8V284.6V287.7H464.8V360.2H469.8V287.7H482.3V282.7H482.2ZM386.7 282.7L464.7 168.3V282.7H386.7Z" fill="#1A1A1A"/>
</svg>
