<svg width="45" height="59" viewBox="0 0 45 59" fill="none" xmlns="http://www.w3.org/2000/svg">
<g clip-path="url(#clip0)">
<path d="M22.5 58.5892C21.052 58.5892 19.6597 58.0323 18.6015 56.9741L1.89356 39.9877C0.891089 38.9296 0.278465 37.4815 0.278465 36.0335V8.07559H3.73143V3.2303C9.80198 1.28104 16.151 0.278564 22.5 0.278564C28.849 0.278564 35.1423 1.28104 41.2129 3.2303V8.0199H44.6658V36.0335C44.6658 37.4815 44.0532 38.9296 43.0507 39.9877L26.3428 56.9741C25.3403 58.0323 23.948 58.5892 22.5 58.5892Z" fill="white"/>
<path d="M22.5 58.8676C20.9406 58.8676 19.4926 58.255 18.4344 57.1411L1.67079 40.2104C0.612624 39.0965 0 37.5928 0 36.0891V7.79703H3.45297V3.06312L3.62005 3.00743C9.74629 1.00248 16.0953 0 22.5 0C28.9047 0 35.198 1.00248 41.3243 3.00743L41.4913 3.06312V7.79703H44.9443V36.0891C44.9443 37.6485 44.3317 39.1522 43.2735 40.2104L26.5656 57.1968C25.5074 58.3106 24.0594 58.8676 22.5 58.8676ZM0.556931 8.35396V36.0891C0.556931 37.4814 1.11386 38.8738 2.11634 39.8205L18.8243 56.8069C19.8267 57.8094 21.1077 58.3663 22.5 58.3663C23.8923 58.3663 25.229 57.8094 26.1757 56.8069L42.8837 39.8205C43.8304 38.8181 44.4431 37.4814 44.4431 36.0891V8.35396H40.9901V3.45297C34.9752 1.55941 28.7376 0.556931 22.5 0.556931C16.2624 0.556931 10.0248 1.55941 4.0099 3.45297V8.35396H0.556931Z" fill="#959595"/>
<path d="M22.5 48.6756C21.4975 48.6756 20.5507 48.2858 19.8267 47.5618L8.35396 35.8662C7.62995 35.1422 7.2401 34.1954 7.2401 33.1373V13.9789H9.6349V10.693C13.8119 9.35633 18.1002 8.63232 22.5 8.63232C26.8441 8.63232 31.1881 9.30064 35.3651 10.693V13.9789H37.7599V33.193C37.7599 34.1954 37.3701 35.1979 36.646 35.9219L25.1733 47.6175C24.4493 48.2858 23.5025 48.6756 22.5 48.6756Z" fill="white"/>
<path d="M22.5 48.9543C21.4418 48.9543 20.3837 48.5087 19.6597 47.729L8.18688 36.0335C7.46287 35.2538 7.01733 34.1956 7.01733 33.1374V13.6449H9.41213V10.4147L9.57921 10.359C17.9889 7.63002 27.0668 7.63002 35.4765 10.359L35.6436 10.4147V13.6449H38.0384V33.1374C38.0384 34.1956 37.5928 35.2538 36.8688 36.0335L25.396 47.729C24.5606 48.5087 23.5582 48.9543 22.5 48.9543ZM7.51856 14.2575V33.1931C7.51856 34.1399 7.90842 35.031 8.52104 35.6993L20.0495 47.3392C20.7178 48.0075 21.6089 48.3973 22.5 48.3973C23.4468 48.3973 24.2822 48.0075 24.9505 47.3392L36.4233 35.6436C37.0916 34.9753 37.4257 34.0842 37.4257 33.1374V14.2018H35.0866V10.8045C26.9554 8.18695 18.1002 8.18695 9.91336 10.8045V14.2018H7.51856V14.2575Z" fill="#959595"/>
</g>
<defs>
<clipPath id="clip0">
<rect width="45" height="58.8676" fill="white"/>
</clipPath>
</defs>
</svg>
