<svg width="50" height="65" viewBox="0 0 50 65" fill="none" xmlns="http://www.w3.org/2000/svg">
<g clip-path="url(#clip0)">
<path d="M25 3.02191C27.4176 3.02191 29.3406 4.94499 29.3406 7.36257C29.3406 9.78015 27.4176 11.7032 25 11.7032C22.5824 11.7032 20.6593 9.78015 20.6593 7.36257C20.6593 4.94499 22.5824 3.02191 25 3.02191ZM25 0.274658C21.0989 0.274658 17.9121 3.46147 17.9121 7.36257C17.9121 11.2637 21.0989 14.4505 25 14.4505C28.9011 14.4505 32.0879 11.2637 32.0879 7.36257C32.0879 3.46147 28.9011 0.274658 25 0.274658Z" fill="white"/>
<path d="M25 14.7253C20.9341 14.7253 17.6374 11.4286 17.6374 7.36264C17.6374 3.2967 20.9341 0 25 0C29.0659 0 32.3626 3.2967 32.3626 7.36264C32.3626 11.4286 29.0659 14.7253 25 14.7253ZM25 0.549451C21.2088 0.549451 18.1868 3.62637 18.1868 7.36264C18.1868 11.0989 21.2637 14.1758 25 14.1758C28.7363 14.1758 31.8132 11.0989 31.8132 7.36264C31.8132 3.62637 28.7363 0.549451 25 0.549451ZM25 11.978C22.4725 11.978 20.3846 9.89011 20.3846 7.36264C20.3846 4.83516 22.4725 2.74725 25 2.74725C27.5275 2.74725 29.6154 4.83516 29.6154 7.36264C29.6154 9.89011 27.5275 11.978 25 11.978ZM25 3.2967C22.7473 3.2967 20.9341 5.10989 20.9341 7.36264C20.9341 9.61538 22.7473 11.4286 25 11.4286C27.2527 11.4286 29.0659 9.61538 29.0659 7.36264C29.0659 5.10989 27.2527 3.2967 25 3.2967Z" fill="#959595"/>
<path d="M22.3077 17.5274V12.0878C22.3077 10.6043 23.5165 9.39551 25 9.39551C26.4835 9.39551 27.6923 10.6043 27.6923 12.0878V17.5274H22.3077Z" fill="white"/>
<path d="M27.967 17.8022H22.033V12.0879C22.033 10.4395 23.3516 9.12085 25 9.12085C26.6483 9.12085 27.967 10.4395 27.967 12.0879V17.8022ZM22.5824 17.2527H27.4176V12.0879C27.4176 10.7692 26.3187 9.6703 25 9.6703C23.6813 9.6703 22.5824 10.7692 22.5824 12.0879V17.2527Z" fill="#959595"/>
<path d="M25 64.1759C38.6251 64.1759 49.6703 53.1306 49.6703 39.5055C49.6703 25.8805 38.6251 14.8352 25 14.8352C11.375 14.8352 0.329681 25.8805 0.329681 39.5055C0.329681 53.1306 11.375 64.1759 25 64.1759Z" fill="white"/>
<path d="M13.022 52.0879C12.8022 52.0879 12.6374 51.9781 12.5275 51.8132C12.4176 51.6484 12.4176 51.4286 12.5275 51.2638L21.5934 36.1539L36.7033 27.0879C36.978 26.9231 37.3626 27.033 37.5275 27.3077C37.6374 27.4726 37.6374 27.6923 37.5275 27.8572L28.4066 42.9121L13.2967 51.978C13.1868 52.033 13.1319 52.0879 13.022 52.0879ZM21.978 36.4835L12.967 51.4835V51.5385L28.022 42.5275L37.033 27.5275L21.978 36.4835Z" fill="#959595"/>
<path d="M25 64.5054C11.2088 64.5054 0 53.2966 0 39.5054C0 25.7142 11.2088 14.5054 25 14.5054C38.7912 14.5054 50 25.7142 50 39.5054C50 53.2966 38.7912 64.5054 25 64.5054ZM25 15.0548C11.5385 15.0548 0.549451 25.9889 0.549451 39.5054C0.549451 53.0218 11.5385 63.9559 25 63.9559C38.4615 63.9559 49.4506 52.9669 49.4506 39.5054C49.4506 26.0438 38.4615 15.0548 25 15.0548ZM25 61.7581C12.7473 61.7581 2.74725 51.7581 2.74725 39.5054C2.74725 27.2526 12.7473 17.2526 25 17.2526C37.2528 17.2526 47.2528 27.2526 47.2528 39.5054C47.2528 51.7581 37.2528 61.7581 25 61.7581ZM25 17.8021C13.022 17.8021 3.2967 27.5273 3.2967 39.5054C3.2967 51.4834 13.022 61.2087 25 61.2087C36.978 61.2087 46.7033 51.4834 46.7033 39.5054C46.7033 27.5273 36.978 17.8021 25 17.8021Z" fill="#959595"/>
<path d="M25 45C28.0345 45 30.4945 42.54 30.4945 39.5055C30.4945 36.471 28.0345 34.011 25 34.011C21.9655 34.011 19.5055 36.471 19.5055 39.5055C19.5055 42.54 21.9655 45 25 45Z" fill="white"/>
<path d="M25 45.2199C21.8132 45.2199 19.2308 42.6374 19.2308 39.4506C19.2308 36.2638 21.8132 33.6814 25 33.6814C28.1868 33.6814 30.7692 36.3188 30.7692 39.5056C30.7692 42.6924 28.1868 45.2199 25 45.2199ZM25 34.2858C22.1429 34.2858 19.7802 36.5935 19.7802 39.5056C19.7802 42.4177 22.0879 44.7254 25 44.7254C27.9121 44.7254 30.2198 42.4177 30.2198 39.5056C30.2198 36.5935 27.8572 34.2858 25 34.2858Z" fill="#959595"/>
<path d="M25 42.4726C23.3516 42.4726 22.033 41.154 22.033 39.5056C22.033 37.8573 23.3516 36.5386 25 36.5386C26.6483 36.5386 27.967 37.8573 27.967 39.5056C27.967 41.154 26.6483 42.4726 25 42.4726ZM25 37.088C23.6813 37.088 22.5824 38.1869 22.5824 39.5056C22.5824 40.8243 23.6813 41.9232 25 41.9232C26.3187 41.9232 27.4176 40.8243 27.4176 39.5056C27.4176 38.1869 26.3187 37.088 25 37.088Z" fill="#959595"/>
</g>
<defs>
<clipPath id="clip0">
<rect width="50" height="64.5055" fill="white"/>
</clipPath>
</defs>
</svg>
