<svg width="55" height="50" viewBox="0 0 55 50" fill="none" xmlns="http://www.w3.org/2000/svg">
<g clip-path="url(#clip0)">
<path d="M26.9841 49.752C25.744 49.752 24.5536 49.256 23.6607 48.3631L11.0119 35.4663C9.17659 33.5814 9.17659 30.5556 11.0119 28.7203L34.4246 4.91076C35.0694 4.26592 35.9127 3.9187 36.8056 3.9187C36.9048 3.9187 36.9544 3.9187 37.0536 3.9187L50.6944 4.86116C52.3809 4.96037 53.7202 6.34926 53.8194 8.03577L54.7123 21.875C54.7619 22.8671 54.4147 23.8096 53.7202 24.504L30.3075 48.3135C29.4147 49.2064 28.2242 49.752 26.9841 49.752ZM43.4028 11.8056C42.4603 11.8056 41.6171 12.1528 40.9722 12.8473C40.3274 13.4921 39.9306 14.385 39.9306 15.377C39.9306 16.3195 40.2778 17.2124 40.9722 17.8572C41.6171 18.502 42.5099 18.8989 43.4524 18.8989C44.3948 18.8989 45.2877 18.502 45.9325 17.8572C46.5774 17.1627 46.9742 16.3195 46.9742 15.377C46.9742 14.4346 46.627 13.5417 45.9325 12.8473C45.2381 12.2024 44.3948 11.8056 43.4028 11.8056Z" fill="white"/>
<path d="M26.9841 50.0001C25.6448 50.0001 24.4048 49.4545 23.4623 48.512L10.8631 35.6648C8.92857 33.6807 8.92857 30.5061 10.8631 28.5715L34.2262 4.76202C34.9702 4.01797 35.9623 3.62115 37.004 3.72036L50.6448 4.66282C52.4305 4.76202 53.869 6.25012 54.0178 8.08543L54.9107 21.9247C54.9603 22.9664 54.6131 24.0081 53.869 24.7521L30.4563 48.5616C29.5635 49.4545 28.3234 50.0001 26.9841 50.0001ZM36.7559 4.16678C35.9127 4.16678 35.1686 4.51401 34.5734 5.10924L11.1607 28.9188C9.4246 30.7045 9.4246 33.5815 11.1607 35.3176L23.8095 48.1648C24.6528 49.0081 25.7936 49.5041 26.9345 49.5041C28.125 49.5041 29.2659 49.0081 30.0595 48.1648L53.4722 24.3553C54.1171 23.7104 54.4147 22.8176 54.3651 21.8751L53.4722 8.03583C53.373 6.44853 52.1329 5.20845 50.5952 5.05964L37.004 4.16678C36.9048 4.16678 36.8552 4.16678 36.7559 4.16678ZM43.4524 19.1469C42.4603 19.1469 41.5178 18.7501 40.8234 18.0061C40.0794 17.3116 39.6825 16.3692 39.6825 15.3771C39.6825 14.385 40.0794 13.393 40.7738 12.6985C41.4682 12.0041 42.4107 11.6073 43.4028 11.6073H43.4524C44.4444 11.6073 45.3869 12.0041 46.0813 12.6985C46.7758 13.393 47.1726 14.385 47.1726 15.3771C47.1726 16.3692 46.7758 17.3612 46.0813 18.0557C45.3869 18.7501 44.4444 19.1469 43.4524 19.1469ZM43.4028 12.0537C42.5595 12.0537 41.7659 12.4009 41.121 12.9962C40.5258 13.641 40.1786 14.4842 40.1786 15.3771C40.1786 16.27 40.5258 17.0636 41.121 17.7085C41.7163 18.3037 42.5595 18.6509 43.4028 18.7005C44.246 18.7005 45.0893 18.3533 45.6845 17.7085C46.2798 17.0636 46.627 16.27 46.627 15.3771C46.627 14.4842 46.2798 13.641 45.6845 13.0458C45.1389 12.4009 44.2956 12.0537 43.4028 12.0537Z" fill="#959595"/>
<path d="M18.3532 47.9663C17.1131 47.9663 15.9226 47.4703 15.0298 46.5774L1.63691 32.9365C-0.198411 31.0516 -0.198411 28.0258 1.63691 26.1905L26.0913 1.28971C26.7361 0.595269 27.629 0.248047 28.5714 0.248047C28.6706 0.248047 28.7202 0.248047 28.8194 0.248047L43.0059 1.19051C44.7421 1.28971 46.1309 2.72821 46.2798 4.51392L47.2222 18.9484C47.2718 19.9901 46.9246 20.9822 46.2302 21.7262L21.6766 46.5774C20.7837 47.4703 19.6429 47.9663 18.3532 47.9663ZM35.4663 8.48217C34.5238 8.48217 33.5813 8.879 32.9365 9.57344C32.2421 10.2679 31.8948 11.2103 31.8948 12.2024C31.8948 13.1945 32.2917 14.0873 32.9365 14.7818C33.6309 15.4762 34.5238 15.873 35.5159 15.873C36.5079 15.873 37.4008 15.4762 38.0952 14.7818C38.7897 14.0873 39.1369 13.1449 39.1369 12.2024C39.1369 11.2103 38.7401 10.2679 38.0952 9.57344C37.3512 8.8294 36.4583 8.48217 35.4663 8.48217Z" fill="white"/>
<path d="M18.3532 48.2144C17.0139 48.2144 15.7738 47.6687 14.8313 46.7263L1.43849 33.0854C-0.496032 31.1013 -0.496032 27.9267 1.43849 25.9922L25.8929 1.09136C26.6369 0.297708 27.7282 -0.0991173 28.8194 8.90996e-05L43.0059 0.992153C44.8909 1.09136 46.379 2.62906 46.4782 4.51398L47.4206 18.9485C47.4702 20.0398 47.123 21.131 46.3294 21.8751L21.875 46.7263C20.9325 47.7183 19.6925 48.2144 18.3532 48.2144ZM28.5714 0.496121C27.7282 0.496121 26.8849 0.843343 26.2897 1.43858L1.78571 26.3394C0.0496024 28.1251 0.0496024 31.0021 1.78571 32.7382L15.1786 46.3791C16.0218 47.2223 17.1627 47.7183 18.3036 47.7183C19.4444 47.7183 20.6349 47.2223 21.4286 46.3791L45.8829 21.5279C46.5278 20.8334 46.875 19.9406 46.8254 18.9485L45.9821 4.56358C45.8829 2.92668 44.5932 1.58739 42.9563 1.48818L28.7698 0.496121C28.7202 0.496121 28.621 0.496121 28.5714 0.496121ZM35.4663 16.0715C34.4246 16.0715 33.4325 15.6747 32.7381 14.9306C31.994 14.1866 31.5972 13.1945 31.5972 12.1529C31.5972 11.1112 31.994 10.1191 32.7381 9.37509C33.4821 8.63104 34.4246 8.23422 35.4663 8.23422H35.5159C36.5575 8.23422 37.5 8.63104 38.244 9.37509C38.9881 10.1191 39.3849 11.1112 39.3849 12.1529C39.3849 13.1945 38.9881 14.1866 38.244 14.9306C37.5 15.6747 36.5079 16.0715 35.4663 16.0715ZM35.4663 8.73025C34.5734 8.73025 33.7302 9.07747 33.0853 9.72231C32.4405 10.3672 32.0932 11.26 32.0932 12.1529C32.0932 13.0457 32.4405 13.9386 33.0853 14.5834C33.7302 15.2283 34.5734 15.5755 35.4663 15.5755C36.3591 15.5755 37.2024 15.2283 37.8472 14.5834C38.4921 13.9386 38.8393 13.0953 38.8393 12.1529C38.8393 11.2104 38.4921 10.3672 37.8472 9.72231C37.252 9.07747 36.4087 8.73025 35.4663 8.73025Z" fill="#959595"/>
</g>
<defs>
<clipPath id="clip0">
<rect width="54.9107" height="50" fill="white"/>
</clipPath>
</defs>
</svg>
