<svg width="31" height="55" viewBox="0 0 31 55" fill="none" xmlns="http://www.w3.org/2000/svg">
<g clip-path="url(#clip0)">
<path d="M0.331993 21.1922L12.5604 1.65999C13.7223 -0.165962 16.4336 -0.165962 17.5956 1.65999L29.8239 21.1922C29.8239 21.2475 29.8239 21.3029 29.7686 21.3029H0.442657C0.331993 21.3029 0.331993 21.2475 0.331993 21.1922Z" fill="white"/>
<path d="M23.9034 54.7233H29.7686C29.7686 54.7233 29.8239 54.7233 29.8239 54.6679V21.3581C29.8239 21.3027 29.8239 21.3027 29.7686 21.3027H29.7133H23.9034H6.19718H0.387321H0.331989C0.276657 21.3027 0.276657 21.3027 0.276657 21.3581V54.6679C0.276657 54.7233 0.276657 54.7233 0.331989 54.7233H6.19718H23.9034Z" fill="white"/>
<path d="M29.7133 21.5795H0.387327C0.276663 21.5795 0.165999 21.5241 0.110667 21.4135C0.0553351 21.3028 0.0553351 21.1922 0.110667 21.0815L12.339 1.49396C12.8924 0.55332 13.9437 0 15.0503 0C16.1569 0 17.2083 0.55332 17.8169 1.49396L30.0453 21.0262C30.1006 21.1368 30.1006 21.2475 30.0453 21.3581C29.9346 21.5241 29.824 21.5795 29.7133 21.5795ZM0.774651 21.0262H29.326L17.3189 1.82596C16.8209 1.05131 15.991 0.55332 15.0503 0.55332C14.1097 0.55332 13.2797 1.05131 12.7817 1.82596L0.774651 21.0262Z" fill="#959595"/>
<path d="M12.3944 55H5.92052V21.0261H12.3944V55ZM6.47384 54.4466H11.841V21.5794H6.47384V54.4466Z" fill="#959595"/>
<path d="M6.47384 55H0.331992C0.165996 55 0 54.834 0 54.668V21.3581C0 21.1921 0.165996 21.0261 0.331992 21.0261H6.47384V55ZM0.55332 54.4466H5.92052V21.5794H0.55332V54.4466Z" fill="#959595"/>
<path d="M18.2596 55H11.841V21.0261H18.2596V55ZM12.3944 54.4466H17.7062V21.5794H12.339V54.4466H12.3944Z" fill="#959595"/>
<path d="M24.1801 55H17.7062V21.0261H24.1801V55ZM18.2596 54.4466H23.6268V21.5794H18.2596V54.4466Z" fill="#959595"/>
<path d="M29.7686 55H23.6268V21.0261H29.7686C29.9346 21.0261 30.1006 21.1921 30.1006 21.3581V54.668C30.1006 54.834 29.9346 55 29.7686 55ZM24.1801 54.4466H29.5473V21.5794H24.1801V54.4466Z" fill="#959595"/>
<path d="M19.5322 4.37134H10.5684V4.92466H19.5322V4.37134Z" fill="#959595"/>
</g>
<defs>
<clipPath id="clip0">
<rect width="30.1006" height="55" fill="white"/>
</clipPath>
</defs>
</svg>
