<svg width="36" height="30" viewBox="0 0 36 30" fill="none" xmlns="http://www.w3.org/2000/svg">
<path d="M1.31799 14.4173L6.17371 29.0011C6.38181 29.6005 6.93675 30 7.56106 30H27.5389C28.1632 30 28.7875 29.6005 28.9262 29.0011L33.7819 14.4173H1.31799ZM12.0006 26.4706C12.0006 27.0699 11.515 27.5361 10.8907 27.5361C10.2664 27.5361 9.78081 27.0699 9.78081 26.4706V17.9467C9.78081 17.3474 10.2664 16.8813 10.8907 16.8813C11.515 16.8813 12.0006 17.3474 12.0006 17.9467V26.4706ZM18.6598 26.4706C18.6598 27.0699 18.1743 27.5361 17.55 27.5361C16.9257 27.5361 16.4401 27.0699 16.4401 26.4706V17.9467C16.4401 17.3474 16.9257 16.8813 17.55 16.8813C18.1743 16.8813 18.6598 17.3474 18.6598 17.9467V26.4706ZM25.2497 26.4706C25.2497 27.0699 24.7642 27.5361 24.1399 27.5361C23.5155 27.5361 23.03 27.0699 23.03 26.4706V17.9467C23.03 17.3474 23.5155 16.8813 24.1399 16.8813C24.7642 16.8813 25.2497 17.3474 25.2497 17.9467V26.4706Z" fill="#1A1A1A"/>
<path d="M34.4756 14.5294H0.554939C0.277469 14.5294 0 14.263 0 13.9967V11.5327C0 11.2664 0.277469 11 0.554939 11H34.4756C34.7531 11 35.0305 11.2664 35.0305 11.5327V13.9967C35.0305 14.3296 34.7531 14.5294 34.4756 14.5294Z" fill="#1A1A1A"/>
<path d="M30.4523 12.3529L19.5617 1.8313C19.1455 1.43174 19.1455 0.765816 19.5617 0.299667C19.9779 -0.099889 20.6715 -0.099889 21.1571 0.299667L32.1172 10.8213L30.4523 12.3529Z" fill="#1A1A1A"/>
<path d="M30.8087 13.3167H33.0284V11.1858H30.8087V13.3167Z" fill="#1A1A1A"/>
<path d="M4.57836 12.3529L15.469 1.8313C15.8852 1.43174 15.8852 0.765816 15.469 0.299667C15.0528 -0.099889 14.3592 -0.099889 13.8736 0.299667L2.98291 10.8879L4.57836 12.3529Z" fill="#1A1A1A"/>
<path d="M4.23147 11.1543H2.01172V13.2852H4.23147V11.1543Z" fill="#1A1A1A"/>
</svg>
