<svg width="27" height="25" viewBox="0 0 27 25" fill="none" xmlns="http://www.w3.org/2000/svg">
<path d="M18.4123 14.2006L15.9501 16.5644C14.4578 15.6332 13.1147 14.4871 11.7717 13.2694C10.5778 12.1234 9.60783 10.9773 8.63785 9.75957L11.1747 7.32415C11.697 6.82275 11.697 5.96319 11.1747 5.39015L5.95173 0.376057C5.42943 -0.125352 4.53405 -0.125352 3.93714 0.376057L0.430257 3.81429C0.0571851 4.17244 -0.0920439 4.60222 0.057185 5.10363C0.877944 8.18371 2.29562 11.1922 4.31021 13.9141C5.20558 15.1318 6.25018 16.3495 7.44402 17.424C8.71246 18.6417 10.1301 19.7878 11.6224 20.7189C14.5324 22.5813 17.4424 24.1572 20.7254 24.9451C21.1731 25.0884 21.6954 24.9451 22.0684 24.587L25.7246 21.0771C26.2469 20.5757 26.2469 19.7161 25.7246 19.1431L20.5015 14.129C19.9046 13.6276 19.0093 13.6276 18.4123 14.2006Z" fill="#1A1A1A"/>
</svg>
