<svg width="180" height="44" viewBox="0 0 180 44" fill="none" xmlns="http://www.w3.org/2000/svg">
<path d="M29.7762 44H14.9276V15.4844H16.5073V42.4669H29.7762V44Z" fill="white"/>
<path d="M15.7174 38.8641C14.5327 38.8641 13.4269 38.4042 12.5581 37.561C11.6893 36.7178 11.2154 35.6446 11.2154 34.4948C11.2154 33.3449 11.6893 32.1951 12.5581 31.4286L12.7951 31.1986L13.9008 32.2718L13.6639 32.5017C13.111 32.9617 12.7951 33.7282 12.7951 34.4948C12.7951 35.2613 13.111 35.9512 13.6639 36.4878C14.7696 37.561 16.6652 37.561 17.771 36.4878L17.8499 36.4111C18.4028 35.8746 18.7187 35.1847 18.7187 34.4181C18.7187 33.6516 18.4028 32.9617 17.8499 32.4251L0 15.1777L15.6384 0L31.1189 15.0244L19.3506 26.446L18.2448 25.3728L28.9074 15.0244L15.6384 2.14634L2.2115 15.1777L18.9557 31.2753C19.8245 32.1185 20.2984 33.1916 20.2984 34.3415C20.2984 35.4913 19.8245 36.6411 18.9557 37.4843V37.561C18.0869 38.4042 16.9021 38.8641 15.7174 38.8641Z" fill="white"/>
<path d="M36.8846 34.4182C37.1216 35.8747 38.5432 36.7945 40.5968 36.7945C42.5713 36.7945 43.993 35.798 43.993 34.4182C43.993 33.1918 43.1242 32.4252 41.0706 31.9653L39.2541 31.5053C36.6477 30.8921 35.5419 29.7423 35.5419 27.7492C35.5419 25.3729 37.5954 23.7632 40.6757 23.7632C43.4401 23.7632 45.5726 25.3729 45.7306 27.6726H43.914C43.677 26.2161 42.4133 25.3729 40.5968 25.3729C38.7012 25.3729 37.4375 26.2928 37.4375 27.7492C37.4375 28.8224 38.2273 29.5123 40.2018 29.9722L41.7025 30.3555C44.7038 31.1221 45.8885 32.1952 45.8885 34.2649C45.8885 36.8712 43.756 38.481 40.5178 38.481C37.4375 38.481 35.305 36.8712 35.147 34.4949H36.8846V34.4182Z" fill="white"/>
<path d="M57.8938 38.0977L52.523 24.0698H54.4976L58.7626 35.8747H58.9206L63.1856 24.0698H65.0812L59.7104 38.0977H57.8938Z" fill="white"/>
<path d="M72.7424 38.0977V24.0698H74.559V38.0977H72.7424Z" fill="white"/>
<path d="M87.1172 38.0977V25.6029H82.4572V23.9932H93.5937V25.6029H88.9337V38.0977H87.1172Z" fill="white"/>
<path d="M110.259 38.0977H101.492V24.0698H103.308V36.5646H110.259V38.0977Z" fill="white"/>
<path d="M118.315 38.0977V24.0698H120.132V38.0977H118.315Z" fill="white"/>
<path d="M134.901 38.4043C130.873 38.4043 128.346 35.5681 128.346 31.0454C128.346 26.5994 130.952 23.6865 134.901 23.6865C138.14 23.6865 140.43 25.4496 140.983 28.2092H139.166C138.534 26.2928 137.113 25.2963 134.98 25.2963C132.137 25.2963 130.241 27.5193 130.241 31.0454C130.241 34.5715 132.058 36.7945 134.98 36.7945C137.587 36.7945 139.324 35.1848 139.324 32.8085V32.5019H135.217V30.9688H141.062V32.6552C141.062 36.1046 138.613 38.4043 134.901 38.4043Z" fill="white"/>
<path d="M159.149 38.0977V31.7353H151.172V38.0977H149.355V24.0698H151.172V30.1256H159.149V24.0698H160.965V38.0977H159.149Z" fill="white"/>
<path d="M173.523 38.0977V25.6029H168.864V23.9932H180V25.6029H175.34V38.0977H173.523Z" fill="white"/>
</svg>
