<svg width="180" height="44" viewBox="0 0 180 44" fill="none" xmlns="http://www.w3.org/2000/svg">
<path d="M29.7762 44H14.9276V15.4843H16.5073V42.4669H29.7762V44Z" fill="black"/>
<path d="M15.7174 38.8641C14.5327 38.8641 13.4269 38.4042 12.5581 37.561C11.6893 36.7178 11.2154 35.6446 11.2154 34.4948C11.2154 33.3449 11.6893 32.1951 12.5581 31.4286L12.7951 31.1986L13.9008 32.2718L13.6639 32.5017C13.111 32.9617 12.7951 33.7282 12.7951 34.4948C12.7951 35.2613 13.111 35.9512 13.6639 36.4878C14.7696 37.561 16.6652 37.561 17.771 36.4878L17.8499 36.4111C18.4028 35.8746 18.7187 35.1847 18.7187 34.4181C18.7187 33.6516 18.4028 32.9617 17.8499 32.4251L0 15.1777L15.6384 0L31.1189 15.0244L19.3506 26.446L18.2448 25.3728L28.9074 15.0244L15.6384 2.14634L2.2115 15.1777L18.9557 31.2753C19.8245 32.1185 20.2984 33.1916 20.2984 34.3415C20.2984 35.4913 19.8245 36.6411 18.9557 37.4843V37.561C18.0869 38.4042 16.9021 38.8641 15.7174 38.8641Z" fill="black"/>
<path d="M36.8846 34.4181C37.1216 35.8746 38.5432 36.7944 40.5968 36.7944C42.5713 36.7944 43.993 35.7979 43.993 34.4181C43.993 33.1916 43.1242 32.4251 41.0706 31.9652L39.2541 31.5052C36.6477 30.892 35.5419 29.7422 35.5419 27.7491C35.5419 25.3728 37.5954 23.7631 40.6757 23.7631C43.4401 23.7631 45.5726 25.3728 45.7306 27.6725H43.914C43.677 26.216 42.4133 25.3728 40.5968 25.3728C38.7012 25.3728 37.4375 26.2927 37.4375 27.7491C37.4375 28.8223 38.2273 29.5122 40.2018 29.9721L41.7025 30.3554C44.7038 31.1219 45.8885 32.1951 45.8885 34.2648C45.8885 36.8711 43.756 38.4808 40.5178 38.4808C37.4375 38.4808 35.305 36.8711 35.147 34.4948H36.8846V34.4181Z" fill="black"/>
<path d="M57.8938 38.0975L52.523 24.0697H54.4976L58.7626 35.8745H58.9206L63.1856 24.0697H65.0812L59.7104 38.0975H57.8938Z" fill="black"/>
<path d="M72.7424 38.0975V24.0697H74.559V38.0975H72.7424Z" fill="black"/>
<path d="M87.1172 38.0975V25.6028H82.4572V23.993H93.5937V25.6028H88.9337V38.0975H87.1172Z" fill="black"/>
<path d="M110.259 38.0975H101.492V24.0697H103.308V36.5644H110.259V38.0975Z" fill="black"/>
<path d="M118.315 38.0975V24.0697H120.132V38.0975H118.315Z" fill="black"/>
<path d="M134.901 38.4042C130.873 38.4042 128.346 35.5679 128.346 31.0453C128.346 26.5993 130.952 23.6864 134.901 23.6864C138.14 23.6864 140.43 25.4495 140.983 28.209H139.166C138.534 26.2927 137.113 25.2962 134.98 25.2962C132.137 25.2962 130.241 27.5192 130.241 31.0453C130.241 34.5714 132.058 36.7944 134.98 36.7944C137.587 36.7944 139.324 35.1847 139.324 32.8084V32.5017H135.217V30.9686H141.062V32.655C141.062 36.1045 138.613 38.4042 134.901 38.4042Z" fill="black"/>
<path d="M159.149 38.0975V31.7352H151.172V38.0975H149.355V24.0697H151.172V30.1254H159.149V24.0697H160.965V38.0975H159.149Z" fill="black"/>
<path d="M173.523 38.0975V25.6028H168.864V23.993H180V25.6028H175.34V38.0975H173.523Z" fill="black"/>
</svg>
