<svg width="34" height="50" viewBox="0 0 34 50" fill="none" xmlns="http://www.w3.org/2000/svg">
<path d="M25.8713 36.772L7.19263 36.7067L7.18172 39.825L25.8604 39.8904L25.8713 36.772Z" fill="white"/>
<path d="M33.2106 9.01536L0.0109863 8.89923L7.81487e-05 12.0176L33.1997 12.1337L33.2106 9.01536Z" fill="white"/>
<path d="M19.979 0.0232487L13.3328 0L13.3262 1.88992L19.9724 1.91317L19.979 0.0232487Z" fill="white"/>
<path d="M25.8659 37.4006L7.18716 37.3376L1.04492 11.3827L32.1656 11.4772L25.8659 37.4006Z" fill="white"/>
<path d="M13.3293 1.27159H19.9755L33.205 9.61874L0.00537109 9.52424L13.3293 1.27159Z" fill="white"/>
<path d="M19.44 43.6688L13.5497 43.6373L7.18701 39.196L25.8657 39.2589L19.44 43.6688Z" fill="white"/>
<path d="M19.4086 50H13.5183L13.5498 43.0388H19.4401L19.4086 50Z" fill="white"/>
<path d="M7.49524 37.0158L7.48657 39.5042L25.5353 39.5671L25.544 37.0787L7.49524 37.0158Z" fill="white"/>
<path d="M7.81698 37.3375L25.2357 37.4005V39.2589L7.81698 39.1959V37.3375ZM7.18701 36.7076V39.8259L25.8657 39.8889V36.7705L7.18701 36.7076Z" fill="#959595"/>
<path d="M0.330692 9.19355L0.322021 11.6819L32.8916 11.7954L32.9003 9.30704L0.330692 9.19355Z" fill="white"/>
<path d="M0.635344 9.52424L32.575 9.65024V11.5087L0.635344 11.3827V9.52424ZM0.00537109 8.89427V12.0126L33.205 12.1386V9.02027L0.00537109 8.89427Z" fill="#959595"/>
<path d="M13.6585 0.306506L13.6541 1.56645L19.6703 1.5876L19.6747 0.327656L13.6585 0.306506Z" fill="white"/>
<path d="M13.9593 0.6416H16.6367H19.3141V0.956587V1.27157H16.6367H13.9593V0.956587V0.6416ZM13.3293 0.0116272V0.956587V1.90155H16.6367H19.9441V0.956587V0.0116272H16.6682H13.3293Z" fill="#959595"/>
<path d="M7.43909 37.0225L1.45435 11.6976L31.7561 11.7921L25.6138 37.0855L7.43909 37.0225Z" fill="white"/>
<path d="M7.43909 37.0225L1.45435 11.6976L31.7561 11.7921L25.6138 37.0855L7.43909 37.0225Z" fill="#FFF08C"/>
<path d="M1.83239 12.0126L31.3781 12.1071L25.3619 36.7706L7.69114 36.7076L1.83239 12.0126ZM1.04492 11.3827L7.18716 37.3376L25.8659 37.4006L32.1971 11.4772L1.04492 11.3827Z" fill="#959595"/>
<path d="M1.10791 9.20922L13.4239 1.58655H19.8811L32.1341 9.30372L1.10791 9.20922Z" fill="white"/>
<path d="M13.5183 1.90156H19.7865L31.0315 8.98876L2.21028 8.89427L13.5183 1.90156ZM13.3293 1.27159L0.00537109 9.52424L33.205 9.65024L19.9755 1.27159H13.3293Z" fill="#959595"/>
<path d="M13.6443 43.3223L8.16357 39.511L24.8264 39.574L13.6443 43.3223Z" fill="white"/>
<path d="M9.17143 39.8259L23.8183 39.8889L19.251 43.0388H13.7387L9.17143 39.8259ZM7.18701 39.196L13.5497 43.6373H19.44L25.8342 39.2275L7.18701 39.196Z" fill="#959595"/>
<path d="M13.8333 49.685L13.8648 43.3538H19.125L19.0935 49.685H13.8333Z" fill="white"/>
<path d="M14.1798 43.6688H18.8101L18.7786 49.37H14.1483L14.1798 43.6688ZM13.5498 43.0388L13.5183 50H19.4086L19.4401 43.0388H13.5498Z" fill="#959595"/>
</svg>
