<svg width="30" height="50" viewBox="0 0 30 50" fill="none" xmlns="http://www.w3.org/2000/svg">
<path d="M12.6648 19.4556L13.0086 20.2006L13.3811 20.9169H14.5845H15.8166L16.1891 20.2006L16.5329 19.4556V18.7393V17.9943H14.5845H12.6648V18.7393V19.4556Z" fill="white"/>
<path d="M8.76791 31.6332C8.76791 36.2464 11.3754 46.6476 14.6132 46.6476C17.851 46.6476 20.4585 36.2464 20.4585 31.6332C20.4585 27.02 17.851 23.2951 14.6132 23.2951C11.3754 23.2951 8.76791 27.02 8.76791 31.6332Z" fill="white"/>
<path d="M20.4585 48.0516H8.76791V50H20.4585V48.0516Z" fill="white"/>
<path d="M17.5358 21.3467H11.6905V23.2951H17.5358V21.3467Z" fill="white"/>
<path d="M17.5358 46.6476H11.6905V48.596H17.5358V46.6476Z" fill="white"/>
<path d="M29.1977 16.2178V19.4556H0V16.2178L3.63897 8.10888L7.30659 0H21.8911L25.5587 8.10888L29.1977 16.2178Z" fill="white"/>
<path d="M13.553 21.6333L12.9513 20.3439V19.1691H16.2464V20.3439L15.6447 21.6333H13.553Z" fill="white"/>
<path d="M15.9599 19.4556V19.6275V20.2579L15.6734 20.9169L15.4728 21.3467H14.6132H13.7536L13.5244 20.9169L13.2092 20.2865V19.6562V19.4843H14.5845H15.9599V19.4556ZM16.533 18.8825H14.5845H12.6361V19.6275V20.3725L13.0086 21.1175L13.3811 21.8625H14.5845H15.788L16.1605 21.1175L16.533 20.3725V19.6275V18.8825Z" fill="#959595"/>
<path d="M14.5845 46.361C13.3238 46.361 11.9198 44.3267 10.7163 40.7736C9.71347 37.765 9.02579 34.0115 9.02579 31.6332C9.02579 27.192 11.5186 23.5817 14.5845 23.5817C17.6504 23.5817 20.1433 27.192 20.1433 31.6332C20.1433 34.0115 19.4556 37.765 18.4527 40.7736C17.2779 44.3267 15.8739 46.361 14.5845 46.361Z" fill="white"/>
<path d="M14.5845 23.8682C17.4785 23.8682 19.8567 27.3639 19.8567 31.6332C19.8567 36.6476 17.0774 46.0745 14.5845 46.0745C12.0917 46.0745 9.31232 36.6476 9.31232 31.6332C9.34098 27.3352 11.6905 23.8682 14.5845 23.8682ZM14.5845 23.2951C11.3467 23.2951 8.73926 27.02 8.73926 31.6332C8.73926 36.2464 11.3467 46.6476 14.5845 46.6476C17.8224 46.6476 20.4298 36.2464 20.4298 31.6332C20.4298 27.02 17.8224 23.2951 14.5845 23.2951Z" fill="#959595"/>
<path d="M20.1719 48.3381H9.05445V49.7135H20.1719V48.3381Z" fill="white"/>
<path d="M19.8567 48.6246V49.4269H9.34097V48.6246H19.8567ZM20.4298 48.0516H8.76791V50H20.4585V48.0516H20.4298Z" fill="#959595"/>
<path d="M17.2493 21.6332H11.9771V23.0086H17.2493V21.6332Z" fill="white"/>
<path d="M16.9341 21.9198V22.7221H12.2636V21.9198H16.9341ZM17.5072 21.3467H11.6905V23.2951H17.5358V21.3467H17.5072Z" fill="#959595"/>
<path d="M17.2493 46.9341H11.9771V48.3668H17.2493V46.9341Z" fill="white"/>
<path d="M16.9341 47.2206V48.0802H12.2636V47.2206H16.9341ZM17.5072 46.6476H11.6905V48.6533H17.5358V46.6476H17.5072Z" fill="#959595"/>
<path d="M0.286537 19.1691V16.2751L7.47851 0.28653H21.7192L28.9112 16.2751V19.1691H0.286537Z" fill="white"/>
<path d="M21.5186 0.573066L25.0143 8.33811L28.6246 16.3324V18.8825H0.573066V16.3324L4.18338 8.33811L7.67908 0.573066H21.5186ZM21.8911 0H7.30659L3.63897 8.10888L0 16.2178V19.4556H29.1977V16.2178L25.5587 8.10888L21.8911 0Z" fill="#959595"/>
</svg>
