<svg width="60" height="45" viewBox="0 0 60 45" fill="none" xmlns="http://www.w3.org/2000/svg">
<path d="M32.0767 25.5591H27.8914V32.8754H32.0767V25.5591Z" fill="white"/>
<path d="M31.4377 25.7508V32.2684H28.5303V25.7508H31.4377ZM32.0767 25.1118H27.8914V32.9073H32.0767V25.1118Z" fill="#959595"/>
<path d="M32.0767 6.9968H27.8914V11.6294H32.0767V6.9968Z" fill="white"/>
<path d="M31.4377 6.10223V13.4824H28.5303V6.10223H31.4377ZM32.0767 5.46326H27.8914V14.1214H32.0767V5.46326Z" fill="#959595"/>
<path d="M37.5398 0C37.5398 0.415335 37.5078 0.86262 37.444 1.24601C36.8369 4.82428 33.7379 7.53994 29.9999 7.53994C29.2011 7.53994 28.4344 7.41214 27.6995 7.1885C27.6037 7.15655 27.5079 7.1246 27.3801 7.09265C27.0925 6.99681 26.805 6.86901 26.5494 6.70927C26.4535 6.64537 26.3257 6.58147 26.2299 6.54952C25.6548 6.23003 25.1117 5.8147 24.6644 5.33546C24.4408 5.11182 24.2491 4.88818 24.0574 4.66454C23.9615 4.53674 23.8337 4.377 23.7379 4.21725C23.674 4.12141 23.6101 4.02556 23.5462 3.89776C23.4503 3.73802 23.3545 3.57827 23.2906 3.41853C23.2587 3.35463 23.2267 3.32268 23.1948 3.25879C23.1309 3.16294 23.0989 3.03514 23.035 2.9393C23.0031 2.8115 22.9392 2.71566 22.9072 2.58786C22.8753 2.46006 22.8114 2.36422 22.7794 2.23642C22.5558 1.53355 22.428 0.766773 22.428 0H37.5398V0Z" fill="white"/>
<path d="M30 26.3898C32.5938 26.3898 34.6964 22.871 34.6964 18.5304C34.6964 14.1897 32.5938 10.6709 30 10.6709C27.4062 10.6709 25.3035 14.1897 25.3035 18.5304C25.3035 22.871 27.4062 26.3898 30 26.3898Z" fill="white"/>
<path d="M36.8689 0.638978C36.837 0.798722 36.837 0.990415 36.805 1.15016C36.2619 4.47284 33.3865 6.90096 29.9999 6.90096C29.297 6.90096 28.5941 6.80511 27.9232 6.58147C27.8274 6.54952 27.7315 6.51757 27.6357 6.48562C27.3801 6.38978 27.1245 6.26198 26.8689 6.13419C26.7731 6.07029 26.6772 6.03834 26.5814 5.97444C26.0702 5.6869 25.559 5.30351 25.1437 4.85623C24.952 4.66454 24.7603 4.44089 24.6005 4.2492C24.5047 4.12141 24.4088 3.99361 24.313 3.83387C24.2491 3.73802 24.1852 3.64217 24.1213 3.54633C24.0255 3.38658 23.9616 3.25879 23.8657 3.09904C23.8338 3.03514 23.8018 3.00319 23.8018 2.9393C23.7379 2.84345 23.706 2.7476 23.674 2.61981C23.6421 2.52396 23.5782 2.39617 23.5462 2.30032C23.5143 2.20447 23.4823 2.07668 23.4504 1.98083C23.2587 1.59744 23.1628 1.11821 23.1309 0.638978H36.8689ZM37.5398 0H22.46C22.46 0.766773 22.5878 1.53355 22.8114 2.23642C22.8433 2.36422 22.8753 2.46006 22.9392 2.58786C22.9711 2.71566 23.035 2.8115 23.067 2.9393C23.0989 3.06709 23.1628 3.16294 23.2267 3.25879C23.2587 3.32268 23.2906 3.35463 23.3226 3.41853C23.4184 3.57827 23.4823 3.73802 23.5782 3.89776C23.6421 3.99361 23.706 4.08946 23.7699 4.21725C23.8657 4.377 23.9935 4.50479 24.0894 4.66454C24.281 4.88818 24.4727 5.14377 24.6964 5.33546C25.1756 5.8147 25.6868 6.19808 26.2619 6.54952C26.3577 6.61342 26.4855 6.67732 26.5814 6.70927C26.837 6.83706 27.1245 6.96486 27.412 7.09265C27.5079 7.1246 27.6037 7.15655 27.7315 7.1885C28.4663 7.41214 29.2331 7.53994 30.0318 7.53994C33.7699 7.53994 36.8689 4.82428 37.4759 1.24601C37.5079 0.86262 37.5398 0.415335 37.5398 0Z" fill="#959595"/>
<path d="M30 11.3099C32.2044 11.3099 34.0575 14.6006 34.0575 18.5304C34.0575 22.4281 32.2044 25.7508 30 25.7508C27.7955 25.7508 25.9105 22.4281 25.9105 18.5304C25.9105 14.6326 27.7955 11.3099 30 11.3099ZM30 10.6709C27.4121 10.6709 25.3035 14.1853 25.3035 18.5304C25.3035 22.8754 27.4121 26.3898 30 26.3898C32.5878 26.3898 34.6964 22.8754 34.6964 18.5304C34.6964 14.1853 32.5878 10.6709 30 10.6709Z" fill="#959595"/>
<path d="M31.853 40.3195V41.2141C31.853 42.3642 31.0224 43.3227 30 43.3227C28.9776 43.3227 28.147 42.3962 28.147 41.2141V40.3195V36.7093H31.885V40.3195H31.853Z" fill="white"/>
<path d="M31.4377 35.2716V39.5208V40.7668C31.4377 41.9489 30.7668 42.9713 29.968 42.9713C29.1693 42.9713 28.4984 41.9489 28.4984 40.7668V39.5527V35.3035H31.4377V35.2716ZM32.0767 34.6326H27.8914V39.5208V40.7348C27.8914 42.3003 28.8179 43.5783 30 43.5783C31.1501 43.5783 32.1086 42.3003 32.1086 40.7348V39.4888V34.6326H32.0767Z" fill="#959595"/>
<path d="M30.4472 36.4217C30.4153 36.5176 30.3514 36.6454 30.3194 36.7412C29.7763 37.9553 29.0734 39.0415 28.2108 40.0319C25.9105 42.6198 22.5559 44.2811 18.7859 44.2811C11.853 44.2811 6.22998 38.6581 6.22998 31.7252H9.36097C9.36097 36.9329 13.5782 41.1502 18.7859 41.1502C22.6517 41.1502 25.9744 38.8179 27.444 35.4633L30.4472 36.4217Z" fill="white"/>
<path d="M8.75398 32.3323C9.07346 37.5719 13.4505 41.7572 18.7859 41.7572C22.6198 41.7572 26.0703 39.6166 27.7636 36.23L29.5527 36.8051C29.0735 37.8275 28.4664 38.754 27.6997 39.5847C25.4313 42.1406 22.1725 43.6102 18.754 43.6102C12.3961 43.6102 7.18848 38.5942 6.83704 32.3323H8.75398ZM9.39295 31.6933H6.26196C6.26196 38.6262 11.885 44.2492 18.8179 44.2492C22.5559 44.2492 25.9425 42.6198 28.2428 40C29.1054 39.0415 29.8083 37.9233 30.3514 36.7093C30.3834 36.6134 30.4473 36.4856 30.4792 36.3898L27.476 35.4313C26.0383 38.7859 22.7156 41.1182 18.8179 41.1182C13.6102 41.1182 9.39295 36.901 9.39295 31.6933Z" fill="#959595"/>
<path d="M15.6869 32.2684H0L1.88498 16.5815H13.8019L15.6869 32.2684Z" fill="white"/>
<path d="M32.556 35.4313C33.9937 38.7859 37.3163 41.1182 41.2141 41.1182C46.4218 41.1182 50.639 36.901 50.639 31.6933H53.77C53.77 38.6262 48.147 44.2492 41.2141 44.2492C37.4441 44.2492 34.0895 42.5879 31.7892 40C30.9266 39.0415 30.2237 37.9233 29.7125 36.7412C29.6806 36.6454 29.6167 36.5176 29.5847 36.4217L32.556 35.4313Z" fill="white"/>
<path d="M53.0991 32.3323C52.7796 38.5942 47.54 43.6102 41.1821 43.6102C37.7636 43.6102 34.5048 42.1406 32.2364 39.5527C31.5016 38.722 30.8946 37.7955 30.4154 36.7732L32.2045 36.1981C33.8978 39.5847 37.3802 41.7252 41.1821 41.7252C46.5176 41.7252 50.8946 37.5399 51.2141 32.3003H53.0991V32.3323ZM53.77 31.6933H50.639C50.639 36.901 46.4217 41.1182 41.2141 41.1182C37.3483 41.1182 33.9936 38.7859 32.5559 35.4313L29.5527 36.4217C29.5847 36.5176 29.6486 36.6454 29.6805 36.7412C30.1917 37.9553 30.9265 39.0415 31.7572 40C34.0575 42.6198 37.4122 44.2492 41.1821 44.2492C48.147 44.2492 53.77 38.6262 53.77 31.6933Z" fill="#959595"/>
<path d="M34.6964 32.2684C34.6964 34.8562 32.5878 36.9649 30 36.9649C27.4121 36.9649 25.3035 34.8562 25.3035 32.2684H34.6964Z" fill="white"/>
<path d="M15.7189 32.3325H4.37345e-06L1.88499 16.6456H13.8339L15.7189 32.3325Z" fill="#FFF08C"/>
<path d="M34.0255 32.9073C33.706 34.8562 32.0446 36.3259 29.9999 36.3259C27.9552 36.3259 26.2938 34.8243 25.9744 32.9073H34.0255ZM34.6964 32.2684H25.2715C25.2715 34.8562 27.3801 36.9649 29.968 36.9649C32.5558 36.9649 34.6964 34.8562 34.6964 32.2684Z" fill="#959595"/>
<path d="M13.2588 17.2843L14.984 31.6933H0.734824L2.46006 17.2843H13.2588ZM13.8019 16.6454H1.88498L0 32.3323H15.6869L13.8019 16.6454Z" fill="#959595"/>
<path d="M60.0001 32.2684H44.2812L46.1662 16.5815H58.1151L60.0001 32.2684Z" fill="white"/>
<path d="M60.0001 32.3325H44.2812L46.1662 16.6456H58.1151L60.0001 32.3325Z" fill="#FFF08C"/>
<path d="M57.5398 17.2843L59.2651 31.6933H45.0159L46.7411 17.2843H57.5398ZM58.1149 16.6454H46.198L44.313 32.3323H59.9999L58.1149 16.6454Z" fill="#959595"/>
</svg>
