<svg width="65" height="25" viewBox="0 0 65 25" fill="none" xmlns="http://www.w3.org/2000/svg">
<path d="M29.2857 22.5C29.9405 23.6012 31.1309 24.3452 32.5 24.3452C33.869 24.3452 35.0893 23.6012 35.7143 22.5H29.2857Z" fill="white"/>
<path d="M31.25 8.83928H28.7798V16.2798H36.2202V8.83928H33.75" fill="white"/>
<path d="M36.2202 15.6845L39.9405 23.0952H25.0595L28.7798 15.6845H36.2202Z" fill="white"/>
<path d="M57.0238 21.5179C58.2738 21.8452 59.6429 21.5179 60.625 20.5655C61.6071 19.5833 61.9048 18.2143 61.5774 16.9643L57.0238 21.5179Z" fill="white"/>
<path d="M52.6191 7.29167L57.5298 12.1726L52.2619 17.4405L46.994 12.1726L50.1488 9.04762" fill="white"/>
<path d="M51.8452 17.0238L54.4643 24.9107L65 14.4048L57.1131 11.756L51.8452 17.0238Z" fill="white"/>
<path d="M3.42261 16.9643C3.24404 17.5893 3.24404 18.2441 3.42261 18.8691C3.57142 19.4941 3.8988 20.0893 4.40475 20.5655C4.9107 21.0417 5.47618 21.3691 6.10118 21.5476C6.72618 21.6964 7.38094 21.6964 8.00594 21.5476L5.74404 19.2857L3.42261 16.9643Z" fill="white"/>
<path d="M12.3809 7.29167L10.0893 9.55358L7.47023 12.1726L10.0893 14.8214L12.7381 17.4405L15.3571 14.8214L17.9762 12.1726L15.3571 9.55358L14.8512 9.04762" fill="white"/>
<path d="M13.1548 17.0238L11.8452 20.9821L10.5357 24.9107L5.26786 19.6726L0 14.4048L3.95833 13.0952L7.8869 11.7857L10.5357 14.4048L13.1548 17.0238Z" fill="white"/>
<path d="M34.4345 23.0952C33.8988 23.5119 33.2143 23.75 32.5 23.75C31.7857 23.75 31.1012 23.5119 30.5655 23.0952H34.4345ZM35.7143 22.5H29.2857C29.9405 23.6012 31.1309 24.3452 32.5 24.3452C33.869 24.3452 35.0893 23.631 35.7143 22.5Z" fill="#959595"/>
<path d="M35.625 9.43452V15.6845H29.375V9.43452H31.25H33.7202H35.625ZM36.2202 8.83928H33.75H31.25H28.7798V16.2798H36.2202V8.83928Z" fill="#959595"/>
<path d="M35.8631 16.2798L38.9881 22.5298H26.0119L29.1369 16.2798H35.8631ZM36.2202 15.6845H28.7798L25.0595 23.125H39.9405L36.2202 15.6845Z" fill="#959595"/>
<path d="M61.1012 18.2738C61.0119 18.9583 60.7143 19.6131 60.2083 20.1191C59.7024 20.625 59.0774 20.9226 58.3631 21.0119L61.1012 18.2738ZM61.5774 16.9643L57.0238 21.5179C57.3512 21.6072 57.6488 21.6369 57.9762 21.6369C58.9286 21.6369 59.881 21.2798 60.5952 20.5357C61.6072 19.5833 61.9345 18.1845 61.5774 16.9643Z" fill="#959595"/>
<path d="M52.5595 8.06548L56.6667 12.1726L52.2619 16.5774L47.8571 12.1726L50.5357 9.49405L52.5595 8.06548ZM52.6191 7.29167L50.1488 9.04762L46.994 12.2024L52.2619 17.4702L57.5298 12.2024L52.6191 7.29167Z" fill="#959595"/>
<path d="M57.2619 12.4405L63.8988 14.6429L54.7321 23.8095L52.5297 17.1726L57.2619 12.4405ZM57.1131 11.756L51.8452 17.0238L54.4643 24.9107L64.9702 14.4048L57.1131 11.756Z" fill="#959595"/>
<path d="M3.89881 18.2738L5.26785 19.6429L6.6369 21.0119C6.48809 20.9822 6.36905 20.9822 6.22024 20.9226C5.68452 20.7738 5.17857 20.506 4.79166 20.1191C4.40476 19.7322 4.10714 19.2262 3.98809 18.6905C3.92857 18.5714 3.89881 18.4226 3.89881 18.2738ZM3.39285 16.9643C3.21428 17.5893 3.21428 18.2441 3.39285 18.8691C3.54166 19.4941 3.86905 20.0893 4.375 20.5655C4.85119 21.0417 5.44643 21.3691 6.07143 21.5476C6.36905 21.6369 6.69643 21.6667 6.99405 21.6667C7.32143 21.6667 7.64881 21.6369 7.94643 21.5476L5.68452 19.2857L3.39285 16.9643Z" fill="#959595"/>
<path d="M12.4405 8.06548L14.4643 9.49405L14.9405 9.97024L17.1428 12.1726L14.9405 14.375L12.7381 16.5774L10.5357 14.375L8.33332 12.1726L10.5357 9.97024L12.4405 8.06548ZM12.3809 7.29167L10.119 9.55358L7.49998 12.1726L10.119 14.7917L12.7381 17.4107L15.3571 14.7917L17.9762 12.1726L15.3571 9.55358L14.8512 9.04762L12.3809 7.29167Z" fill="#959595"/>
<path d="M7.73809 12.4405L10.119 14.8214L12.5 17.2024L11.3095 20.8036L10.2679 23.8095L5.68452 19.2262L1.10119 14.6429L4.1369 13.631L7.73809 12.4405ZM7.8869 11.756L3.95833 13.0655L0 14.4048L5.26786 19.6429L10.5357 24.9107L11.8452 20.9821L13.1548 17.0536L10.5357 14.4345L7.8869 11.756Z" fill="#959595"/>
<path d="M14.8512 2.3512V5.29762V8.24405V11.1905C14.8512 11.3691 14.8214 11.5179 14.7619 11.6667C14.7024 11.8155 14.6131 11.9345 14.4941 12.0536C14.375 12.1726 14.256 12.2619 14.1071 12.3214C13.9583 12.381 13.8095 12.4107 13.631 12.4107C13.4524 12.4107 13.3036 12.381 13.1548 12.3214C13.006 12.2619 12.8869 12.1726 12.7679 12.0536C12.6488 11.9345 12.5595 11.8155 12.5 11.6667C12.4405 11.5179 12.4107 11.3691 12.4107 11.1905V8.24405V5.29762V2.3512H14.8512Z" fill="white"/>
<path d="M33.75 2.3512V5.29762V8.24405V11.1905C33.75 11.3691 33.7202 11.5179 33.6607 11.6667C33.6012 11.8155 33.5119 11.9345 33.3929 12.0536C33.2738 12.1726 33.1548 12.2619 33.006 12.3214C32.8571 12.381 32.7083 12.4107 32.5298 12.4107C32.3512 12.4107 32.2024 12.381 32.0536 12.3214C31.9048 12.2619 31.7857 12.1726 31.6667 12.0536C31.5476 11.9345 31.4583 11.8155 31.3988 11.6667C31.3393 11.5179 31.3095 11.3691 31.3095 11.1905V8.24405V5.29762V2.3512H33.75Z" fill="white"/>
<path d="M52.619 2.32143V5.26786V8.21428V11.1607C52.619 11.3393 52.5893 11.4881 52.5298 11.6369C52.4702 11.7857 52.381 11.9048 52.2619 12.0238C52.1429 12.1429 52.0238 12.2321 51.875 12.2917C51.7262 12.3512 51.5774 12.3809 51.3988 12.3809C51.2202 12.3809 51.0714 12.3512 50.9226 12.2917C50.7738 12.2321 50.6548 12.1429 50.5357 12.0238C50.4167 11.9048 50.3274 11.7857 50.2679 11.6369C50.2083 11.4881 50.1786 11.3393 50.1786 11.1607V8.21428V5.26786V2.32143H52.619Z" fill="white"/>
<path d="M58.244 0.297623H6.78571V2.17262H58.244V0.297623Z" fill="white"/>
<path d="M57.9167 0.595238V1.875H7.08334V0.595238H57.9167ZM58.5119 0H6.4881V2.47024H58.5417V0H58.5119Z" fill="#959595"/>
<path d="M14.256 2.47025V4.82144V7.76787V10.7143C14.256 10.8036 14.2262 10.8929 14.1964 10.9524C14.1667 11.0417 14.1072 11.1012 14.0476 11.1607C13.9881 11.2203 13.9286 11.2798 13.8393 11.3095C13.75 11.3393 13.6905 11.3691 13.6012 11.3691C13.5119 11.3691 13.4226 11.3393 13.3631 11.3095C13.2738 11.2798 13.2143 11.2203 13.1548 11.1607C13.0953 11.1012 13.0357 11.0417 13.006 10.9524C12.9762 10.8631 12.9464 10.8036 12.9464 10.7143V7.76787V4.82144V2.47025H14.256ZM14.8512 1.87502H12.381V4.82144V7.76787V10.7143C12.381 10.8929 12.4107 11.0417 12.4703 11.1905C12.5298 11.3393 12.6191 11.4583 12.7381 11.5774C12.8572 11.6964 12.9762 11.7857 13.125 11.8453C13.2738 11.9048 13.4226 11.9345 13.6012 11.9345C13.7798 11.9345 13.9286 11.9048 14.0774 11.8453C14.2262 11.7857 14.3453 11.6964 14.4643 11.5774C14.5833 11.4583 14.6726 11.3393 14.7322 11.1905C14.7917 11.0417 14.8214 10.8929 14.8214 10.7143V7.76787V4.82144V1.87502H14.8512Z" fill="#959595"/>
<path d="M33.1548 2.47025V4.82144V7.76787V10.7143C33.1548 10.8036 33.125 10.8929 33.0952 10.9524C33.0655 11.0417 33.006 11.1012 32.9464 11.1607C32.8869 11.2203 32.8274 11.2798 32.7381 11.3095C32.6488 11.3393 32.5893 11.3691 32.5 11.3691C32.4107 11.3691 32.3214 11.3393 32.2619 11.3095C32.1726 11.2798 32.1131 11.2203 32.0536 11.1607C31.994 11.1012 31.9345 11.0417 31.9048 10.9524C31.875 10.8631 31.8452 10.8036 31.8452 10.7143V7.76787V4.82144V2.47025H33.1548ZM33.75 1.87502H31.25V4.82144V7.76787V10.7143C31.25 10.8929 31.2798 11.0417 31.3393 11.1905C31.3988 11.3393 31.4881 11.4583 31.6071 11.5774C31.7262 11.6964 31.8452 11.7857 31.994 11.8453C32.1429 11.9048 32.2917 11.9345 32.4702 11.9345C32.6488 11.9345 32.7976 11.9048 32.9464 11.8453C33.0952 11.7857 33.2143 11.6964 33.3333 11.5774C33.4524 11.4583 33.5417 11.3393 33.6012 11.1905C33.6607 11.0417 33.6905 10.8929 33.6905 10.7143V7.76787V4.82144V1.87502H33.75Z" fill="#959595"/>
<path d="M52.0238 2.47025V4.82144V7.76787V10.7143C52.0238 10.8036 51.994 10.8929 51.9643 10.9524C51.9345 11.0417 51.875 11.1012 51.8155 11.1607C51.7559 11.2203 51.6964 11.2798 51.6071 11.3095C51.5178 11.3393 51.4583 11.3691 51.369 11.3691C51.2798 11.3691 51.1905 11.3393 51.1309 11.3095C51.0417 11.2798 50.9821 11.2203 50.9226 11.1607C50.8631 11.1012 50.8036 11.0417 50.7738 10.9524C50.744 10.8631 50.7143 10.8036 50.7143 10.7143V7.76787V4.82144V2.47025H52.0238ZM52.619 1.87502H50.1488V4.82144V7.76787V10.7143C50.1488 10.8929 50.1786 11.0417 50.2381 11.1905C50.2976 11.3393 50.3869 11.4583 50.5059 11.5774C50.625 11.6964 50.744 11.7857 50.8929 11.8453C51.0417 11.9048 51.1905 11.9345 51.369 11.9345C51.5476 11.9345 51.6964 11.9048 51.8452 11.8453C51.994 11.7857 52.1131 11.6964 52.2321 11.5774C52.3512 11.4583 52.4405 11.3393 52.5 11.1905C52.5595 11.0417 52.5893 10.8929 52.5893 10.7143V7.76787V4.82144V1.87502H52.619Z" fill="#959595"/>
</svg>
