<svg width="60" height="35" viewBox="0 0 60 35" fill="none" xmlns="http://www.w3.org/2000/svg">
<path d="M20.0714 16.7364V20.0714H0V16.7364L2.50892 8.35288L5.01785 0H15.0535L17.5625 8.35288L20.0714 16.7364Z" fill="white"/>
<path d="M28.4549 23.7736V24.4161C28.4549 29.9541 23.9572 34.4518 18.4192 34.4518C12.8812 34.4518 8.38347 29.9541 8.38347 24.4161H11.3819C11.3819 24.5079 11.3819 24.6303 11.3819 24.7221C11.5349 28.4549 14.6252 31.4533 18.3886 31.4533C22.2131 31.4533 25.3034 28.4243 25.4258 24.6303C25.4258 24.5691 25.4258 24.5079 25.4258 24.4161V22.3967L28.4549 23.7736Z" fill="white"/>
<path d="M54.9516 21.9684H44.9159V24.9668H54.9516V21.9684Z" fill="white"/>
<path d="M39.898 16.7364V20.0714H60V16.7364L57.4605 8.35288L54.9516 0H44.9159L42.4069 8.35288L39.898 16.7364Z" fill="white"/>
<path d="M34.513 22.3967V24.4161C34.513 28.3019 37.6645 31.4533 41.5502 31.4533C45.436 31.4533 48.5569 28.3019 48.5875 24.4467H51.5859C51.5859 29.9847 47.0882 34.4824 41.5502 34.4824C36.0122 34.4824 31.5145 29.9847 31.5145 24.4467V23.8042L34.513 22.3967Z" fill="white"/>
<path d="M11.3819 19.49H8.38347V22.4885H11.3819V19.49Z" fill="#C7C7C7"/>
<path d="M51.5859 19.49H48.5875V22.4885H51.5859V19.49Z" fill="#C7C7C7"/>
<path d="M54.3396 22.5803V24.3549H45.5278V22.5803H54.3396ZM54.9516 21.9684H44.9159V24.9668H54.9516V21.9684Z" fill="#959595"/>
<path d="M14.5946 0.611933L16.9811 8.53646L19.4595 16.8281V19.4595H0.611933V16.8281L3.09026 8.53646L5.4768 0.611933H14.5946ZM15.0535 0H5.01785L2.50892 8.35288L0 16.7364V20.0714H20.0714V16.7364L17.5625 8.38348L15.0535 0Z" fill="#959595"/>
<path d="M54.5232 0.611933L56.9097 8.53646L59.3881 16.8281V19.4595H40.5405V16.8281L43.0189 8.53646L45.3748 0.611933H54.5232ZM54.9516 0H44.9159L42.4069 8.35288L39.898 16.7058V20.0408H59.9694V16.7364L57.4605 8.38348L54.9516 0Z" fill="#959595"/>
<path d="M11.076 19.7654H8.68945V22.2743H11.076V19.7654Z" fill="white"/>
<path d="M10.8006 20.0714V21.9684H9.02603V20.0714H10.8006ZM11.4126 19.4594H8.41409V22.5803H11.4126V19.4594Z" fill="#959595"/>
<path d="M51.28 19.7654H48.8934V22.2437H51.28V19.7654Z" fill="white"/>
<path d="M50.974 20.0714V21.9378H49.1994V20.0714H50.974ZM51.5859 19.4594H48.5875V22.5497H51.5859V19.4594Z" fill="#959595"/>
<path d="M33.9011 23.3758V24.4467C33.9011 28.6691 37.3279 32.0959 41.5502 32.0959C45.5584 32.0959 48.8628 28.975 49.1688 25.0281H50.974C50.668 29.9541 46.5681 33.9011 41.5808 33.9011C36.3794 33.9011 32.1571 29.6787 32.1571 24.4773V24.1713L33.9011 23.3758ZM34.513 22.3967L31.5145 23.7736V24.4161C31.5145 29.9541 36.0122 34.4518 41.5502 34.4518C47.0882 34.4518 51.5859 29.9235 51.5859 24.3549H48.5875C48.5875 28.2407 45.436 31.4228 41.5502 31.4228C37.6645 31.4228 34.513 28.2713 34.513 24.3855V22.3967Z" fill="#959595"/>
<path d="M26.0683 23.3758L27.843 24.1713V24.4161C27.843 29.6176 23.6206 33.8399 18.4192 33.8399C13.4319 33.8399 9.33199 29.9235 9.02603 24.9975H10.8006C11.1066 28.975 14.3804 32.0653 18.4192 32.0653C20.408 32.0653 22.305 31.3004 23.743 29.8929C25.181 28.4855 26.0072 26.6191 26.0378 24.6303C26.0378 24.5691 26.0378 24.4773 26.0378 24.4161V23.3758H26.0683ZM25.4564 22.3967V24.4161C25.4564 24.4773 25.4564 24.5385 25.4564 24.6303C25.334 28.4243 22.2438 31.4533 18.4192 31.4533C14.6558 31.4533 11.5655 28.4855 11.4126 24.7221C11.4126 24.6303 11.4126 24.4773 11.4126 24.3855H8.41409C8.41409 29.9235 12.9118 34.4518 18.4498 34.4518C23.9878 34.4518 28.4549 29.9847 28.4549 24.4161V23.7736L25.4564 22.3967Z" fill="#959595"/>
<path d="M31.5145 10.2499V5.56857H34.513V11.6267L31.5145 10.2499Z" fill="white"/>
<path d="M25.4564 11.6267V5.56857H28.4855V10.2499L25.4564 11.6267Z" fill="white"/>
<path d="M33.9011 6.18051V10.6476L32.1265 9.8521V6.18051H33.9011ZM34.513 5.56857H31.5145V10.2499L34.513 11.6267V5.56857Z" fill="#959595"/>
<path d="M27.8735 6.18051V9.8521L26.0989 10.6476V6.18051H27.8735ZM28.4855 5.56857H25.487V11.6267L28.4855 10.2499V5.56857Z" fill="#959595"/>
<path d="M29.9847 9.48495C25.8236 9.48495 22.4579 12.8506 22.4579 17.0117C22.4579 21.1729 25.8236 24.5385 29.9847 24.5385C34.1458 24.5385 37.5115 21.1729 37.5115 17.0117C37.5115 12.8506 34.1458 9.48495 29.9847 9.48495ZM29.9847 18.9087C28.9444 18.9087 28.0877 18.052 28.0877 17.0423C28.0877 16.002 28.9444 15.1453 29.9847 15.1453C31.025 15.1453 31.8511 16.002 31.8511 17.0423C31.8817 18.052 31.025 18.9087 29.9847 18.9087Z" fill="white"/>
<path d="M29.9847 10.0969C33.8093 10.0969 36.8995 13.1871 36.8995 17.0117C36.8995 20.8363 33.8093 23.9266 29.9847 23.9266C26.1601 23.9266 23.0699 20.8363 23.0699 17.0117C23.0699 13.1871 26.1907 10.0969 29.9847 10.0969ZM29.9847 19.5207C31.3616 19.5207 32.463 18.3886 32.463 17.0423C32.463 15.6655 31.331 14.5334 29.9847 14.5334C28.6079 14.5334 27.4758 15.6655 27.4758 17.0423C27.5064 18.3886 28.6079 19.5207 29.9847 19.5207ZM29.9847 9.48495C25.8236 9.48495 22.4579 12.8506 22.4579 17.0117C22.4579 21.1729 25.8236 24.5385 29.9847 24.5385C34.1458 24.5385 37.5115 21.1729 37.5115 17.0117C37.5115 12.8506 34.1458 9.48495 29.9847 9.48495ZM29.9847 18.9087C28.9444 18.9087 28.0877 18.052 28.0877 17.0423C28.0877 16.002 28.9444 15.1453 29.9847 15.1453C31.025 15.1453 31.8511 16.002 31.8511 17.0423C31.8817 18.052 31.025 18.9087 29.9847 18.9087Z" fill="#959595"/>
<path d="M15.0535 21.9684H5.01785V24.9668H15.0535V21.9684Z" fill="white"/>
<path d="M14.4416 22.5803V24.3549H5.62979V22.5803H14.4416ZM15.0535 21.9684H5.01785V24.9668H15.0535V21.9684Z" fill="#959595"/>
</svg>
