<svg width="42" height="50" viewBox="0 0 42 50" fill="none" xmlns="http://www.w3.org/2000/svg">
<path d="M22.4158 27.5547H18.9604V30.3013H22.4158V27.5547Z" fill="white"/>
<path d="M27.9976 27.5547H27.1412V38.3048H27.9976V27.5547Z" fill="white"/>
<path d="M24.808 30.5966C24.808 31.3644 24.1878 31.9846 23.42 31.9846H17.9267C17.1589 31.9846 16.5387 31.3644 16.5387 30.5966C16.5387 29.8287 17.1589 29.2085 17.9267 29.2085H23.4495C24.1878 29.2085 24.808 29.8287 24.808 30.5966Z" fill="white"/>
<path d="M41.3467 27.5546H0L1.21087 24.306L1.29947 24.1288L2.59894 20.6734L3.86887 17.218L5.16834 13.7921L6.46781 10.3367L7.76728 6.88128L9.03721 3.4554L10.3367 0H31.01L41.3467 27.5546Z" fill="white"/>
<path d="M22.1205 27.2888H19.2558V29.5334H22.1205V27.2888Z" fill="white"/>
<path d="M21.7956 27.5842V29.2381H19.5216V27.5842H21.7956ZM22.3863 26.9935H18.9604V29.8287H22.4158V26.9935H22.3863Z" fill="#959595"/>
<path d="M22.1205 31.6893H19.2558V49.7047H22.1205V31.6893Z" fill="white"/>
<path d="M21.7956 31.9846V49.4093H19.5216V31.9846H21.7956ZM22.3863 31.394H18.9604V50H22.4158V31.394H22.3863Z" fill="#959595"/>
<path d="M27.7023 27.2593H27.4365V37.4483H27.7023V27.2593Z" fill="white"/>
<path d="M27.9976 26.964H27.1412V37.7437H27.9976V26.964Z" fill="#959595"/>
<path d="M17.9268 31.6893C17.3361 31.6893 16.834 31.2168 16.834 30.5966C16.834 30.0059 17.3066 29.5038 17.9268 29.5038H23.4495C24.0402 29.5038 24.5422 29.9764 24.5422 30.5966C24.5422 31.1872 24.0697 31.6893 23.4495 31.6893H17.9268Z" fill="white"/>
<path d="M23.42 29.7992C23.863 29.7992 24.2174 30.1536 24.2174 30.5966C24.2174 31.0396 23.863 31.394 23.42 31.394H17.9267C17.4837 31.394 17.1293 31.0396 17.1293 30.5966C17.1293 30.1536 17.4837 29.7992 17.9267 29.7992H23.42ZM23.42 29.2085H17.9267C17.1589 29.2085 16.5387 29.8287 16.5387 30.5966C16.5387 31.3644 17.1589 31.9846 17.9267 31.9846H23.4495C24.2174 31.9846 24.8376 31.3644 24.8376 30.5966C24.808 29.8287 24.1878 29.2085 23.42 29.2085Z" fill="#959595"/>
<path d="M30.5966 0.590667L40.4903 26.964H0.856468L1.772 24.5127L1.83107 24.306L3.13054 20.8506L4.43001 17.4247L5.72947 13.9693L7.02894 10.5139L8.29888 7.08801L9.59835 3.6326L10.7501 0.590667H30.5966ZM31.01 0H10.3367L9.03721 3.4554L7.73774 6.91081L6.46781 10.3367L5.16834 13.7921L3.86887 17.2475L2.59894 20.6734L1.29947 24.1288L1.21087 24.3355L0 27.5546H41.3467L31.01 0Z" fill="#959595"/>
<path d="M27.5546 40.2245C28.3213 40.2245 28.9427 39.603 28.9427 38.8364C28.9427 38.0698 28.3213 37.4483 27.5546 37.4483C26.788 37.4483 26.1666 38.0698 26.1666 38.8364C26.1666 39.603 26.788 40.2245 27.5546 40.2245Z" fill="white"/>
<path d="M27.5546 39.9291C28.1581 39.9291 28.6474 39.4399 28.6474 38.8364C28.6474 38.2329 28.1581 37.7437 27.5546 37.7437C26.9511 37.7437 26.4619 38.2329 26.4619 38.8364C26.4619 39.4399 26.9511 39.9291 27.5546 39.9291Z" fill="white"/>
<path d="M27.5546 38.0685C27.9976 38.0685 28.352 38.4229 28.352 38.8659C28.352 39.3089 27.9976 39.6633 27.5546 39.6633C27.1116 39.6633 26.7572 39.3089 26.7572 38.8659C26.7572 38.4229 27.1412 38.0685 27.5546 38.0685ZM27.5546 37.4778C26.7868 37.4778 26.1666 38.098 26.1666 38.8659C26.1666 39.6338 26.7868 40.254 27.5546 40.254C28.3225 40.254 28.9427 39.6338 28.9427 38.8659C28.9427 38.0685 28.3225 37.4778 27.5546 37.4778Z" fill="#959595"/>
</svg>
