<svg width="42" height="55" viewBox="0 0 42 55" fill="none" xmlns="http://www.w3.org/2000/svg">
<path d="M24.9478 50.8018C24.9478 53.0972 23.0752 54.9698 20.7798 54.9698C18.4843 54.9698 16.6117 53.0972 16.6117 50.8018H24.9478Z" fill="white"/>
<path d="M21.5953 0.60405H19.9341V25.5519H21.5953V0.60405Z" fill="white"/>
<path d="M24.9478 28.3004V35.7908H16.6117V28.3004C16.6117 27.8473 16.7023 27.3943 16.8836 27.0016C17.0648 26.609 17.3064 26.2466 17.6084 25.9445L17.6386 25.9143C17.6688 25.8841 17.7292 25.8237 17.7594 25.7935C17.8199 25.7331 17.8803 25.7029 17.9407 25.6425C18.0313 25.5821 18.1219 25.5217 18.2125 25.4613C18.3031 25.4009 18.3937 25.3405 18.4843 25.3103C18.5447 25.2801 18.5749 25.2801 18.6353 25.2499C19.028 25.0686 19.481 24.978 19.9341 24.978H21.5952C22.8336 24.978 23.8907 25.6425 24.4646 26.6392C24.7666 27.1225 24.9478 27.6963 24.9478 28.3004Z" fill="white"/>
<path d="M41.5596 51.4058H0L16.6117 35.1867H24.9478L41.5596 51.4058Z" fill="white"/>
<path d="M24.2833 51.4058C24.0115 53.0972 22.5315 54.3959 20.7798 54.3959C19.028 54.3959 17.5782 53.0972 17.2762 51.4058H24.2833ZM24.9478 50.8018H16.6117C16.6117 53.1274 18.4843 55 20.7798 55C23.0752 55 24.9478 53.0972 24.9478 50.8018Z" fill="#959595"/>
<path d="M21.9275 25.5519H19.6321V0H21.8973V25.5519H21.9275ZM20.2361 24.9478H21.2933V0.604064H20.2361V24.9478Z" fill="#959595"/>
<path d="M21.6254 25.5519C22.592 25.5519 23.498 26.0653 23.9813 26.911C24.2229 27.3339 24.3437 27.7869 24.3437 28.2702V35.1867H17.2158V28.2702C17.2158 27.9077 17.2762 27.5453 17.4272 27.2131C17.5782 26.8808 17.7594 26.5788 18.0011 26.3372L18.0313 26.307C18.0615 26.2768 18.0917 26.2466 18.1219 26.2163C18.1521 26.1861 18.1823 26.1559 18.2125 26.1257L18.2729 26.0653C18.3333 26.0049 18.3937 25.9747 18.4843 25.9143C18.5749 25.8539 18.6353 25.8237 18.7259 25.7935C18.7561 25.7633 18.8166 25.7633 18.8468 25.7331C19.179 25.5821 19.5414 25.5217 19.9039 25.5217H21.6254V25.5519ZM21.6254 24.9478H19.9341C19.481 24.9478 19.028 25.0384 18.6353 25.2196C18.5749 25.2498 18.5447 25.2498 18.4843 25.28C18.3937 25.3405 18.3031 25.3707 18.2125 25.4311C18.1219 25.4915 18.0313 25.5519 17.9407 25.6123C17.8803 25.6727 17.8199 25.7029 17.7594 25.7633C17.7292 25.7935 17.6688 25.8539 17.6386 25.8841L17.6084 25.9143C17.3064 26.2163 17.0648 26.5788 16.8836 26.9714C16.7023 27.3641 16.6117 27.8171 16.6117 28.2702V35.7908H24.9176V28.2702C24.9176 27.6661 24.7666 27.0922 24.4645 26.609C23.9209 25.6123 22.8336 24.9478 21.6254 24.9478Z" fill="#959595"/>
<path d="M24.676 35.7908L40.0494 50.8017H1.47996L16.8534 35.7908H24.676ZM24.9478 35.1867H16.6117L0 51.4058H41.5596L24.9478 35.1867Z" fill="#959595"/>
</svg>
