<svg width="45" height="50" viewBox="0 0 45 50" fill="none" xmlns="http://www.w3.org/2000/svg">
<path d="M30.4372 48.1027V41.9364L29.7675 41.5737V48.1027H30.4372Z" fill="white"/>
<path d="M15.147 9.51451L18.0209 3.68304C20.4484 -1.22768 24.4104 -1.22768 26.81 3.68304L29.6839 9.51451C30.3256 10.798 31.9718 11.9978 33.3669 12.1931L39.8122 13.1138C45.2252 13.8951 46.4528 17.6618 42.5187 21.4844L37.8591 26.0045C36.8546 27.0089 36.2129 28.9621 36.4361 30.3571L37.5243 36.7467C38.445 42.1317 35.2363 44.4754 30.4093 41.9085L24.6336 38.8672C23.3781 38.1975 21.3133 38.1975 20.0577 38.8672L14.2821 41.9085C9.45507 44.4475 6.24636 42.1317 7.16712 36.7467L8.25529 30.3571C8.50641 28.9621 7.86467 27.0089 6.8323 26.0045L2.28431 21.4844C-1.62194 17.6897 -0.394262 13.923 5.01868 13.1138L11.464 12.1931C12.8591 11.9978 14.5053 10.7701 15.147 9.51451Z" fill="white"/>
<path d="M26.7821 21.2612C27.984 21.2612 28.9584 20.2868 28.9584 19.0848C28.9584 17.8829 27.984 16.9085 26.7821 16.9085C25.5801 16.9085 24.6057 17.8829 24.6057 19.0848C24.6057 20.2868 25.5801 21.2612 26.7821 21.2612Z" fill="white"/>
<path d="M18.0767 21.2612C19.2787 21.2612 20.2531 20.2868 20.2531 19.0848C20.2531 17.8829 19.2787 16.9085 18.0767 16.9085C16.8748 16.9085 15.9004 17.8829 15.9004 19.0848C15.9004 20.2868 16.8748 21.2612 18.0767 21.2612Z" fill="white"/>
<path d="M27.0332 25.6138C27.0332 28.0134 25.0801 29.9665 22.6805 29.9665C20.281 29.9665 18.3279 28.0134 18.3279 25.6138H27.0332Z" fill="white"/>
<path d="M30.1024 50C30.7034 50 31.1906 49.5128 31.1906 48.9118C31.1906 48.3109 30.7034 47.8237 30.1024 47.8237C29.5014 47.8237 29.0142 48.3109 29.0142 48.9118C29.0142 49.5128 29.5014 50 30.1024 50Z" fill="white"/>
<path d="M29.7675 41.4341V47.9353H30.4372V41.769L29.7675 41.4341Z" fill="#959595"/>
<path d="M22.4294 0.558036C23.8803 0.558036 25.2475 1.75781 26.3357 3.93415L29.2095 9.76562C29.935 11.2165 31.7207 12.5279 33.3111 12.7511L39.7564 13.6719C42.156 14.0067 43.7185 14.9554 44.1649 16.3504C44.6113 17.7176 43.9138 19.4196 42.156 21.0938L37.4964 25.6138C36.3524 26.7299 35.6549 28.8783 35.9339 30.4408L37.022 36.8304C37.3569 38.8393 37.1057 40.4576 36.2966 41.4062C35.7665 42.048 34.9852 42.3828 34.0086 42.3828C33.0321 42.3828 31.916 42.048 30.6883 41.4062L24.9127 38.365C24.2151 38.0022 23.3223 37.8069 22.3736 37.8069C21.4249 37.8069 20.5042 38.0022 19.8345 38.365L14.0589 41.4062C12.8591 42.048 11.7151 42.3828 10.7386 42.3828C9.76199 42.3828 8.98074 42.048 8.4506 41.4062C7.64145 40.4576 7.39034 38.8114 7.72516 36.8304L8.81333 30.4408C9.09235 28.8504 8.3948 26.7299 7.25083 25.6138L2.67493 21.0938C0.945024 19.3917 0.219577 17.7176 0.666005 16.3504C1.11243 14.9833 2.67493 14.0346 5.07449 13.6719L11.5198 12.7511C13.1102 12.5279 14.9238 11.2165 15.6214 9.76562L18.4952 3.93415C19.6113 1.75781 20.9785 0.558036 22.4294 0.558036ZM22.4294 0C20.839 0 19.2486 1.22768 18.0209 3.68304L15.147 9.51451C14.5053 10.7701 12.8591 11.9978 11.4361 12.1931L5.01868 13.1138C-0.394262 13.923 -1.62194 17.6897 2.28431 21.4844L6.94391 26.0045C7.94837 27.0089 8.59011 28.9621 8.3669 30.3571L7.25083 36.7746C6.58118 40.6808 8.08788 42.9688 10.7944 42.9688C11.8267 42.9688 13.0265 42.6339 14.3658 41.9364L20.1415 38.8951C20.7553 38.5603 21.5923 38.3929 22.4294 38.3929C23.2665 38.3929 24.0756 38.5603 24.7173 38.8951L30.493 41.9364C31.8323 42.6339 33.0321 42.9688 34.0644 42.9688C36.7709 42.9688 38.2776 40.6808 37.608 36.7746L36.5198 30.385C36.2687 28.99 36.9104 27.0368 37.9428 26.0324L42.5745 21.4844C46.5086 17.6618 45.281 13.8951 39.868 13.1138L33.4227 12.1931C32.0276 11.9978 30.3535 10.7701 29.7397 9.51451L26.8379 3.68304C25.6102 1.22768 24.0198 0 22.4294 0Z" fill="#959595"/>
<path d="M26.7821 17.4386C27.6749 17.4386 28.4004 18.1641 28.4004 19.0569C28.4004 19.9498 27.6749 20.6752 26.7821 20.6752C25.8892 20.6752 25.1638 19.9498 25.1638 19.0569C25.1638 18.192 25.8892 17.4386 26.7821 17.4386ZM26.7821 16.8806C25.5823 16.8806 24.6057 17.8571 24.6057 19.0569C24.6057 20.2567 25.5823 21.2332 26.7821 21.2332C27.9819 21.2332 28.9584 20.2567 28.9584 19.0569C28.9584 17.8571 27.9819 16.8806 26.7821 16.8806Z" fill="#959595"/>
<path d="M18.0767 17.4386C18.9696 17.4386 19.695 18.1641 19.695 19.0569C19.695 19.9498 18.9696 20.6752 18.0767 20.6752C17.1839 20.6752 16.4584 19.9498 16.4584 19.0569C16.4305 18.192 17.1839 17.4386 18.0767 17.4386ZM18.0767 16.8806C16.8769 16.8806 15.9004 17.8571 15.9004 19.0569C15.9004 20.2567 16.8769 21.2333 18.0767 21.2333C19.2765 21.2333 20.2531 20.2567 20.2531 19.0569C20.2531 17.8571 19.2765 16.8806 18.0767 16.8806Z" fill="#959595"/>
<path d="M26.4194 26.1719C26.1403 28.0134 24.5778 29.4085 22.6526 29.4085C20.7274 29.4085 19.1649 27.9855 18.8859 26.1719H26.4194ZM27.0332 25.6138H18.2999C18.2999 28.0134 20.2531 29.9665 22.6526 29.9665C25.0522 29.9665 27.0332 28.0134 27.0332 25.6138Z" fill="#959595"/>
<path d="M30.1024 48.3538C30.4093 48.3538 30.6325 48.6049 30.6325 48.8839C30.6325 49.163 30.3814 49.4141 30.1024 49.4141C29.8234 49.4141 29.5723 49.163 29.5723 48.8839C29.5723 48.6049 29.8234 48.3538 30.1024 48.3538ZM30.1024 47.7958C29.4886 47.7958 29.0142 48.2701 29.0142 48.8839C29.0142 49.4978 29.5165 49.9721 30.1024 49.9721C30.6883 49.9721 31.1906 49.4978 31.1906 48.8839C31.1906 48.298 30.7162 47.7958 30.1024 47.7958Z" fill="#959595"/>
</svg>
