<svg width="60" height="45" viewBox="0 0 60 45" fill="none" xmlns="http://www.w3.org/2000/svg">
<path d="M32.0767 25.5591H27.8914V32.8754H32.0767V25.5591Z" fill="white"/>
<path d="M31.4377 25.7508V32.2684H28.5303V25.7508H31.4377ZM32.0767 25.1118H27.8914V32.9073H32.0767V25.1118Z" fill="#959595"/>
<path d="M32.0767 6.9968H27.8914V11.6294H32.0767V6.9968Z" fill="white"/>
<path d="M31.4377 6.10224V13.4824H28.5303V6.10224H31.4377ZM32.0767 5.46326H27.8914V14.1214H32.0767V5.46326Z" fill="#959595"/>
<path d="M37.5399 0C37.5399 0.415335 37.508 0.86262 37.4441 1.24601C36.837 4.82428 33.738 7.53994 30 7.53994C29.2013 7.53994 28.4345 7.41214 27.6997 7.1885C27.6038 7.15655 27.508 7.1246 27.3802 7.09265C27.0926 6.99681 26.8051 6.86901 26.5495 6.70927C26.4537 6.64537 26.3259 6.58147 26.23 6.54952C25.6549 6.23003 25.1118 5.8147 24.6645 5.33546C24.4409 5.11182 24.2492 4.88818 24.0575 4.66454C23.9616 4.53674 23.8339 4.377 23.738 4.21725C23.6741 4.12141 23.6102 4.02556 23.5463 3.89776C23.4505 3.73802 23.3546 3.57827 23.2907 3.41853C23.2588 3.35463 23.2268 3.32268 23.1949 3.25879C23.131 3.16294 23.099 3.03514 23.0351 2.9393C23.0032 2.8115 22.9393 2.71566 22.9073 2.58786C22.8754 2.46006 22.8115 2.36422 22.7795 2.23642C22.5559 1.53355 22.4281 0.766773 22.4281 0H37.5399V0Z" fill="white"/>
<path d="M30.0001 26.3898C32.5939 26.3898 34.6966 22.871 34.6966 18.5304C34.6966 14.1897 32.5939 10.6709 30.0001 10.6709C27.4063 10.6709 25.3036 14.1897 25.3036 18.5304C25.3036 22.871 27.4063 26.3898 30.0001 26.3898Z" fill="white"/>
<path d="M36.869 0.638978C36.8371 0.798722 36.8371 0.990415 36.8051 1.15016C36.262 4.47284 33.3866 6.90096 30 6.90096C29.2971 6.90096 28.5943 6.80511 27.9233 6.58147C27.8275 6.54952 27.7316 6.51757 27.6358 6.48562C27.3802 6.38978 27.1246 6.26198 26.869 6.13419C26.7732 6.07029 26.6773 6.03834 26.5815 5.97444C26.0703 5.6869 25.5591 5.30351 25.1438 4.85623C24.9521 4.66454 24.7604 4.44089 24.6007 4.2492C24.5048 4.12141 24.409 3.99361 24.3131 3.83387C24.2492 3.73802 24.1853 3.64217 24.1214 3.54633C24.0256 3.38658 23.9617 3.25879 23.8658 3.09904C23.8339 3.03514 23.8019 3.00319 23.8019 2.9393C23.738 2.84345 23.7061 2.7476 23.6741 2.61981C23.6422 2.52396 23.5783 2.39617 23.5463 2.30032C23.5144 2.20447 23.4824 2.07668 23.4505 1.98083C23.2588 1.59744 23.163 1.11821 23.131 0.638978H36.869ZM37.54 0H22.4601C22.4601 0.766773 22.5879 1.53355 22.8115 2.23642C22.8435 2.36422 22.8754 2.46006 22.9393 2.58786C22.9713 2.71566 23.0352 2.8115 23.0671 2.9393C23.0991 3.06709 23.163 3.16294 23.2269 3.25879C23.2588 3.32268 23.2908 3.35463 23.3227 3.41853C23.4185 3.57827 23.4824 3.73802 23.5783 3.89776C23.6422 3.99361 23.7061 4.08946 23.77 4.21725C23.8658 4.377 23.9936 4.50479 24.0895 4.66454C24.2812 4.88818 24.4729 5.14377 24.6965 5.33546C25.1757 5.8147 25.6869 6.19808 26.262 6.54952C26.3578 6.61342 26.4856 6.67732 26.5815 6.70927C26.8371 6.83706 27.1246 6.96486 27.4122 7.09265C27.508 7.1246 27.6039 7.15655 27.7316 7.1885C28.4665 7.41214 29.2332 7.53994 30.032 7.53994C33.77 7.53994 36.869 4.82428 37.4761 1.24601C37.508 0.86262 37.54 0.415335 37.54 0Z" fill="#959595"/>
<path d="M30.0001 11.3099C32.2045 11.3099 34.0576 14.6006 34.0576 18.5304C34.0576 22.4281 32.2045 25.7508 30.0001 25.7508C27.7956 25.7508 25.9106 22.4281 25.9106 18.5304C25.9106 14.6326 27.7956 11.3099 30.0001 11.3099ZM30.0001 10.6709C27.4122 10.6709 25.3036 14.1853 25.3036 18.5304C25.3036 22.8754 27.4122 26.3898 30.0001 26.3898C32.5879 26.3898 34.6966 22.8754 34.6966 18.5304C34.6966 14.1853 32.5879 10.6709 30.0001 10.6709Z" fill="#959595"/>
<path d="M31.853 40.3195V41.2141C31.853 42.3642 31.0224 43.3227 30 43.3227C28.9776 43.3227 28.147 42.3962 28.147 41.2141V40.3195V36.7093H31.885V40.3195H31.853Z" fill="white"/>
<path d="M31.4377 35.2716V39.5208V40.7668C31.4377 41.9489 30.7668 42.9713 29.968 42.9713C29.1693 42.9713 28.4984 41.9489 28.4984 40.7668V39.5527V35.3035H31.4377V35.2716ZM32.0767 34.6326H27.8914V39.5208V40.7348C27.8914 42.3003 28.8179 43.5783 30 43.5783C31.1501 43.5783 32.1086 42.3003 32.1086 40.7348V39.4888V34.6326H32.0767Z" fill="#959595"/>
<path d="M30.4472 36.4217C30.4153 36.5176 30.3514 36.6454 30.3194 36.7412C29.7763 37.9553 29.0734 39.0415 28.2108 40.0319C25.9105 42.6198 22.5559 44.2811 18.7859 44.2811C11.853 44.2811 6.22998 38.6581 6.22998 31.7252H9.36097C9.36097 36.9329 13.5782 41.1502 18.7859 41.1502C22.6517 41.1502 25.9744 38.8179 27.444 35.4633L30.4472 36.4217Z" fill="white"/>
<path d="M8.7541 32.3323C9.07359 37.5719 13.4506 41.7572 18.786 41.7572C22.6199 41.7572 26.0704 39.6166 27.7637 36.23L29.5528 36.8051C29.0736 37.8275 28.4666 38.754 27.6998 39.5847C25.4314 42.1406 22.1726 43.6102 18.7541 43.6102C12.3963 43.6102 7.1886 38.5942 6.83716 32.3323H8.7541ZM9.39308 31.6933H6.26208C6.26208 38.6262 11.8851 44.2492 18.818 44.2492C22.556 44.2492 25.9426 42.6198 28.2429 40C29.1055 39.0415 29.8084 37.9233 30.3515 36.7093C30.3835 36.6134 30.4474 36.4856 30.4793 36.3898L27.4761 35.4313C26.0384 38.7859 22.7158 41.1182 18.818 41.1182C13.6103 41.1182 9.39308 36.901 9.39308 31.6933Z" fill="#959595"/>
<path d="M15.6869 32.2684H0L1.88498 16.5815H13.8019L15.6869 32.2684Z" fill="white"/>
<path d="M32.556 35.4313C33.9937 38.7859 37.3163 41.1182 41.2141 41.1182C46.4218 41.1182 50.639 36.901 50.639 31.6933H53.77C53.77 38.6262 48.147 44.2492 41.2141 44.2492C37.4441 44.2492 34.0895 42.5879 31.7892 40C30.9266 39.0415 30.2237 37.9233 29.7125 36.7412C29.6806 36.6454 29.6167 36.5176 29.5847 36.4217L32.556 35.4313Z" fill="white"/>
<path d="M53.0991 32.3323C52.7796 38.5942 47.54 43.6102 41.1821 43.6102C37.7636 43.6102 34.5048 42.1406 32.2364 39.5527C31.5016 38.722 30.8946 37.7955 30.4154 36.7732L32.2045 36.1981C33.8978 39.5847 37.3802 41.7252 41.1821 41.7252C46.5176 41.7252 50.8946 37.5399 51.2141 32.3003H53.0991V32.3323ZM53.77 31.6933H50.639C50.639 36.901 46.4217 41.1182 41.2141 41.1182C37.3483 41.1182 33.9936 38.7859 32.5559 35.4313L29.5527 36.4217C29.5847 36.5176 29.6486 36.6454 29.6805 36.7412C30.1917 37.9553 30.9265 39.0415 31.7572 40C34.0575 42.6198 37.4122 44.2492 41.1821 44.2492C48.147 44.2492 53.77 38.6262 53.77 31.6933Z" fill="#959595"/>
<path d="M34.6966 32.2684C34.6966 34.8562 32.5879 36.9649 30.0001 36.9649C27.4122 36.9649 25.3036 34.8562 25.3036 32.2684H34.6966Z" fill="white"/>
<path d="M34.0255 32.9073C33.706 34.8562 32.0446 36.3259 29.9999 36.3259C27.9552 36.3259 26.2938 34.8243 25.9744 32.9073H34.0255ZM34.6964 32.2684H25.2715C25.2715 34.8562 27.3801 36.9649 29.968 36.9649C32.5558 36.9649 34.6964 34.8562 34.6964 32.2684Z" fill="#959595"/>
<path d="M13.2588 17.2843L14.984 31.6933H0.734824L2.46006 17.2843H13.2588ZM13.8019 16.6454H1.88498L0 32.3323H15.6869L13.8019 16.6454Z" fill="#959595"/>
<path d="M60 32.2684H44.2811L46.1661 16.5815H58.115L60 32.2684Z" fill="white"/>
<path d="M57.54 17.2843L59.2652 31.6933H45.016L46.7412 17.2843H57.54ZM58.115 16.6454H46.1981L44.3131 32.3323H60L58.115 16.6454Z" fill="#959595"/>
</svg>
