<svg width="65" height="25" viewBox="0 0 65 25" fill="none" xmlns="http://www.w3.org/2000/svg">
<path d="M29.2856 22.5C29.9404 23.6012 31.1309 24.3452 32.4999 24.3452C33.869 24.3452 35.0892 23.6012 35.7142 22.5H29.2856Z" fill="white"/>
<path d="M29.2856 22.5C29.9404 23.6012 31.1309 24.3452 32.4999 24.3452C33.869 24.3452 35.0892 23.6012 35.7142 22.5H29.2856Z" fill="#FFF08C"/>
<path d="M31.25 8.83928H28.7798V16.2798H36.2203V8.83928H33.75" fill="white"/>
<path d="M36.2203 15.6845L39.9405 23.0952H25.0596L28.7798 15.6845H36.2203Z" fill="white"/>
<path d="M36.2203 15.6845L39.9405 23.0952H25.0596L28.7798 15.6845H36.2203Z" fill="#FFF08C"/>
<path d="M57.0239 21.5179C58.2739 21.8452 59.643 21.5179 60.6251 20.5655C61.6073 19.5833 61.9049 18.2143 61.5775 16.9643L57.0239 21.5179Z" fill="white"/>
<path d="M57.0239 21.5179C58.2739 21.8452 59.643 21.5179 60.6251 20.5655C61.6073 19.5833 61.9049 18.2143 61.5775 16.9643L57.0239 21.5179Z" fill="#FFF08C"/>
<path d="M52.6191 7.29167L57.5299 12.1726L52.262 17.4405L46.9941 12.1726L50.1489 9.04762" fill="white"/>
<path d="M51.8452 17.0238L54.4643 24.9107L65 14.4048L57.1131 11.756L51.8452 17.0238Z" fill="white"/>
<path d="M51.8452 17.0238L54.4643 24.9107L65 14.4048L57.1131 11.756L51.8452 17.0238Z" fill="#FFF08C"/>
<path d="M3.4225 16.9643C3.24393 17.5893 3.24393 18.2441 3.4225 18.8691C3.57131 19.4941 3.89869 20.0893 4.40465 20.5655C4.9106 21.0417 5.47607 21.3691 6.10107 21.5476C6.72607 21.6964 7.38084 21.6964 8.00584 21.5476L5.74393 19.2857L3.4225 16.9643Z" fill="white"/>
<path d="M3.4225 16.9643C3.24393 17.5893 3.24393 18.2441 3.4225 18.8691C3.57131 19.4941 3.89869 20.0893 4.40465 20.5655C4.9106 21.0417 5.47607 21.3691 6.10107 21.5476C6.72607 21.6964 7.38084 21.6964 8.00584 21.5476L5.74393 19.2857L3.4225 16.9643Z" fill="#FFF08C"/>
<path d="M12.3809 7.29167L10.0893 9.55358L7.47021 12.1726L10.0893 14.8214L12.7381 17.4405L15.3571 14.8214L17.9762 12.1726L15.3571 9.55358L14.8512 9.04762" fill="white"/>
<path d="M13.1548 17.0238L11.8452 20.9821L10.5357 24.9107L5.26786 19.6726L0 14.4048L3.95833 13.0952L7.8869 11.7857L10.5357 14.4048L13.1548 17.0238Z" fill="white"/>
<path d="M13.1548 17.0238L11.8452 20.9821L10.5357 24.9107L5.26786 19.6726L0 14.4048L3.95833 13.0952L7.8869 11.7857L10.5357 14.4048L13.1548 17.0238Z" fill="#FFF08C"/>
<path d="M34.4345 23.0952C33.8987 23.5119 33.2142 23.75 32.4999 23.75C31.7856 23.75 31.1011 23.5119 30.5654 23.0952H34.4345ZM35.7142 22.5H29.2856C29.9404 23.6012 31.1309 24.3452 32.4999 24.3452C33.869 24.3452 35.0892 23.631 35.7142 22.5Z" fill="#959595"/>
<path d="M35.625 9.43452V15.6845H29.375V9.43452H31.25H33.7203H35.625ZM36.2203 8.83928H33.75H31.25H28.7798V16.2798H36.2203V8.83928Z" fill="#959595"/>
<path d="M35.8631 16.2798L38.9881 22.5298H26.012L29.137 16.2798H35.8631ZM36.2203 15.6845H28.7798L25.0596 23.125H39.9405L36.2203 15.6845Z" fill="#959595"/>
<path d="M61.1013 18.2738C61.012 18.9583 60.7144 19.6131 60.2084 20.1191C59.7025 20.625 59.0775 20.9226 58.3632 21.0119L61.1013 18.2738ZM61.5775 16.9643L57.0239 21.5179C57.3513 21.6072 57.6489 21.6369 57.9763 21.6369C58.9287 21.6369 59.8811 21.2798 60.5954 20.5357C61.6073 19.5833 61.9346 18.1845 61.5775 16.9643Z" fill="#959595"/>
<path d="M52.5596 8.06548L56.6668 12.1726L52.262 16.5774L47.8572 12.1726L50.5358 9.49405L52.5596 8.06548ZM52.6191 7.29167L50.1489 9.04762L46.9941 12.2024L52.262 17.4702L57.5299 12.2024L52.6191 7.29167Z" fill="#959595"/>
<path d="M57.2619 12.4405L63.8988 14.6429L54.7321 23.8095L52.5297 17.1726L57.2619 12.4405ZM57.1131 11.756L51.8452 17.0238L54.4643 24.9107L64.9702 14.4048L57.1131 11.756Z" fill="#959595"/>
<path d="M3.89891 18.2738L5.26796 19.6429L6.63701 21.0119C6.4882 20.9822 6.36915 20.9822 6.22034 20.9226C5.68463 20.7738 5.17868 20.506 4.79177 20.1191C4.40487 19.7322 4.10725 19.2262 3.9882 18.6905C3.92868 18.5714 3.89891 18.4226 3.89891 18.2738ZM3.39296 16.9643C3.21439 17.5893 3.21439 18.2441 3.39296 18.8691C3.54177 19.4941 3.86915 20.0893 4.3751 20.5655C4.85129 21.0417 5.44653 21.3691 6.07153 21.5476C6.36915 21.6369 6.69653 21.6667 6.99415 21.6667C7.32153 21.6667 7.64891 21.6369 7.94653 21.5476L5.68463 19.2857L3.39296 16.9643Z" fill="#959595"/>
<path d="M12.4405 8.06548L14.4643 9.49405L14.9405 9.97024L17.1429 12.1726L14.9405 14.375L12.7381 16.5774L10.5357 14.375L8.33333 12.1726L10.5357 9.97024L12.4405 8.06548ZM12.381 7.29167L10.119 9.55358L7.5 12.1726L10.119 14.7917L12.7381 17.4107L15.3571 14.7917L17.9762 12.1726L15.3571 9.55358L14.8512 9.04762L12.381 7.29167Z" fill="#959595"/>
<path d="M7.73809 12.4405L10.119 14.8214L12.5 17.2024L11.3095 20.8036L10.2679 23.8095L5.68452 19.2262L1.10119 14.6429L4.1369 13.631L7.73809 12.4405ZM7.8869 11.756L3.95833 13.0655L0 14.4048L5.26786 19.6429L10.5357 24.9107L11.8452 20.9821L13.1548 17.0536L10.5357 14.4345L7.8869 11.756Z" fill="#959595"/>
<path d="M14.8511 2.3512V5.29762V8.24405V11.1905C14.8511 11.3691 14.8214 11.5179 14.7618 11.6667C14.7023 11.8155 14.613 11.9345 14.494 12.0536C14.3749 12.1726 14.2559 12.2619 14.1071 12.3214C13.9583 12.381 13.8095 12.4107 13.6309 12.4107C13.4523 12.4107 13.3035 12.381 13.1547 12.3214C13.0059 12.2619 12.8868 12.1726 12.7678 12.0536C12.6487 11.9345 12.5595 11.8155 12.4999 11.6667C12.4404 11.5179 12.4106 11.3691 12.4106 11.1905V8.24405V5.29762V2.3512H14.8511Z" fill="white"/>
<path d="M33.75 2.3512V5.29762V8.24405V11.1905C33.75 11.3691 33.7203 11.5179 33.6608 11.6667C33.6012 11.8155 33.512 11.9345 33.3929 12.0536C33.2739 12.1726 33.1548 12.2619 33.006 12.3214C32.8572 12.381 32.7084 12.4107 32.5298 12.4107C32.3512 12.4107 32.2024 12.381 32.0536 12.3214C31.9048 12.2619 31.7858 12.1726 31.6667 12.0536C31.5477 11.9345 31.4584 11.8155 31.3989 11.6667C31.3393 11.5179 31.3096 11.3691 31.3096 11.1905V8.24405V5.29762V2.3512H33.75Z" fill="white"/>
<path d="M52.6189 2.32143V5.26786V8.21428V11.1607C52.6189 11.3393 52.5892 11.4881 52.5297 11.6369C52.4701 11.7857 52.3808 11.9048 52.2618 12.0238C52.1428 12.1429 52.0237 12.2321 51.8749 12.2917C51.7261 12.3512 51.5773 12.3809 51.3987 12.3809C51.2201 12.3809 51.0713 12.3512 50.9225 12.2917C50.7737 12.2321 50.6547 12.1429 50.5356 12.0238C50.4166 11.9048 50.3273 11.7857 50.2677 11.6369C50.2082 11.4881 50.1785 11.3393 50.1785 11.1607V8.21428V5.26786V2.32143H52.6189Z" fill="white"/>
<path d="M58.244 0.297623H6.78564V2.17262H58.244V0.297623Z" fill="white"/>
<path d="M57.9166 0.595238V1.875H7.08328V0.595238H57.9166ZM58.5118 0H6.48804V2.47024H58.5416V0H58.5118Z" fill="#959595"/>
<path d="M14.2559 2.47025V4.82144V7.76787V10.7143C14.2559 10.8036 14.2261 10.8929 14.1963 10.9524C14.1666 11.0417 14.1071 11.1012 14.0475 11.1607C13.988 11.2203 13.9285 11.2798 13.8392 11.3095C13.7499 11.3393 13.6904 11.3691 13.6011 11.3691C13.5118 11.3691 13.4225 11.3393 13.363 11.3095C13.2737 11.2798 13.2142 11.2203 13.1547 11.1607C13.0951 11.1012 13.0356 11.0417 13.0059 10.9524C12.9761 10.8631 12.9463 10.8036 12.9463 10.7143V7.76787V4.82144V2.47025H14.2559ZM14.8511 1.87502H12.3809V4.82144V7.76787V10.7143C12.3809 10.8929 12.4106 11.0417 12.4701 11.1905C12.5297 11.3393 12.619 11.4583 12.738 11.5774C12.8571 11.6964 12.9761 11.7857 13.1249 11.8453C13.2737 11.9048 13.4225 11.9345 13.6011 11.9345C13.7797 11.9345 13.9285 11.9048 14.0773 11.8453C14.2261 11.7857 14.3451 11.6964 14.4642 11.5774C14.5832 11.4583 14.6725 11.3393 14.7321 11.1905C14.7916 11.0417 14.8213 10.8929 14.8213 10.7143V7.76787V4.82144V1.87502H14.8511Z" fill="#959595"/>
<path d="M33.1548 2.47025V4.82144V7.76787V10.7143C33.1548 10.8036 33.125 10.8929 33.0952 10.9524C33.0655 11.0417 33.006 11.1012 32.9464 11.1607C32.8869 11.2203 32.8274 11.2798 32.7381 11.3095C32.6488 11.3393 32.5893 11.3691 32.5 11.3691C32.4107 11.3691 32.3214 11.3393 32.2619 11.3095C32.1726 11.2798 32.1131 11.2203 32.0536 11.1607C31.994 11.1012 31.9345 11.0417 31.9048 10.9524C31.875 10.8631 31.8452 10.8036 31.8452 10.7143V7.76787V4.82144V2.47025H33.1548ZM33.75 1.87502H31.25V4.82144V7.76787V10.7143C31.25 10.8929 31.2798 11.0417 31.3393 11.1905C31.3988 11.3393 31.4881 11.4583 31.6071 11.5774C31.7262 11.6964 31.8452 11.7857 31.994 11.8453C32.1429 11.9048 32.2917 11.9345 32.4702 11.9345C32.6488 11.9345 32.7976 11.9048 32.9464 11.8453C33.0952 11.7857 33.2143 11.6964 33.3333 11.5774C33.4524 11.4583 33.5417 11.3393 33.6012 11.1905C33.6607 11.0417 33.6905 10.8929 33.6905 10.7143V7.76787V4.82144V1.87502H33.75Z" fill="#959595"/>
<path d="M52.0239 2.47025V4.82144V7.76787V10.7143C52.0239 10.8036 51.9942 10.8929 51.9644 10.9524C51.9346 11.0417 51.8751 11.1012 51.8156 11.1607C51.7561 11.2203 51.6965 11.2798 51.6073 11.3095C51.518 11.3393 51.4585 11.3691 51.3692 11.3691C51.2799 11.3691 51.1906 11.3393 51.1311 11.3095C51.0418 11.2798 50.9823 11.2203 50.9227 11.1607C50.8632 11.1012 50.8037 11.0417 50.7739 10.9524C50.7442 10.8631 50.7144 10.8036 50.7144 10.7143V7.76787V4.82144V2.47025H52.0239ZM52.6192 1.87502H50.1489V4.82144V7.76787V10.7143C50.1489 10.8929 50.1787 11.0417 50.2382 11.1905C50.2977 11.3393 50.387 11.4583 50.5061 11.5774C50.6251 11.6964 50.7442 11.7857 50.893 11.8453C51.0418 11.9048 51.1906 11.9345 51.3692 11.9345C51.5477 11.9345 51.6965 11.9048 51.8454 11.8453C51.9942 11.7857 52.1132 11.6964 52.2323 11.5774C52.3513 11.4583 52.4406 11.3393 52.5001 11.1905C52.5596 11.0417 52.5894 10.8929 52.5894 10.7143V7.76787V4.82144V1.87502H52.6192Z" fill="#959595"/>
</svg>
